<?xml version="1.0" encoding="UTF-8"?>
<svg version="1.1" xmlns="http://www.w3.org/2000/svg" width="400" height="400">
    <path
        d="M0 0 C0 0.33 0 0.66 0 1 C2.64 1.33 5.28 1.66 8 2 C8 1.67 8 1.34 8 1 C13.60805977 -0.0162256 18.76497252 0.03982886 24.4375 0.4375 C25.67790039 0.51581055 25.67790039 0.51581055 26.94335938 0.59570312 C28.96265478 0.72409763 30.98139629 0.86115424 33 1 C32.67 1.66 32.34 2.32 32 3 C32.91597458 2.9969838 33.83194916 2.99396759 34.77568054 2.99085999 C43.41281029 2.96860426 52.04911195 2.97979949 60.68614483 3.02846622 C65.12653026 3.05230916 69.56616517 3.06326675 74.0065918 3.04467773 C78.29294689 3.02720943 82.5779543 3.04371788 86.86414528 3.08367729 C88.49835702 3.09296343 90.13268551 3.09005606 91.76685143 3.07469368 C104.57119919 2.96602105 104.57119919 2.96602105 108.10749817 5.52513123 C110.39354951 8.62244135 111.67348713 12.16151484 112.3125 15.9375 C112.45300781 16.70964844 112.59351563 17.48179688 112.73828125 18.27734375 C112.82464844 18.84582031 112.91101563 19.41429688 113 20 C113.66 20 114.32 20 115 20 C115.103125 20.598125 115.20625 21.19625 115.3125 21.8125 C116.1032679 24.32857968 117.08428637 25.23754346 119 27 C121 30 121 30 121.5 33.5625 C122.04839547 37.33271884 122.70467538 37.87363077 125.4375 40.25 C128.47994328 43.65753648 129.9764016 47.61314969 131 52 C131.63474075 53.34882408 132.29848848 54.6846659 133 56 C134 58 134 58 134.4375 60 C134.88278362 62.20895094 134.88278362 62.20895094 137 64 C137.66 64.33 138.32 64.66 139 65 C139.40729228 67.32156597 139.74438677 69.6568787 140 72 C140.66 72 141.32 72 142 72 C144.03435531 75.72965139 145 77.66905042 145 82 C144.34773438 82.24234375 143.69546875 82.4846875 143.0234375 82.734375 C137.91238199 84.69436679 133.30155463 86.58081555 129 90 C128.67 90.99 128.34 91.98 128 93 C127.0409375 93.2165625 127.0409375 93.2165625 126.0625 93.4375 C125.381875 93.623125 124.70125 93.80875 124 94 C123.690625 94.639375 123.38125 95.27875 123.0625 95.9375 C122 98 122 98 119.4375 99 C118.633125 99.33 117.82875 99.66 117 100 C116.38932856 101.85744207 116.38932856 101.85744207 116 104 C113.37436014 107.93845979 111.37428355 109.38842185 107 111 C104.89767656 113.8684413 104.89767656 113.8684413 104 117 C103.01 117.33 102.02 117.66 101 118 C100.4311055 119.84651211 100.4311055 119.84651211 100 122 C99.16178642 123.46756083 98.30594207 124.92512236 97.4375 126.375 C94.17996798 132.75749005 94.04251331 138.97552944 95 146 C96.02673319 148.70638894 96.96365215 149.84728941 99 152 C99.474375 152.5775 99.94875 153.155 100.4375 153.75 C105.25399371 157.60319497 110.46350652 157.2450267 116.3125 157.125 C117.14845703 157.11597656 117.98441406 157.10695312 118.84570312 157.09765625 C120.89725969 157.07420989 122.94866777 157.03834266 125 157 C125 156.34 125 155.68 125 155 C126.2375 154.855625 127.475 154.71125 128.75 154.5625 C132.68823915 154.06935189 136.23282985 153.25572338 140 152 C141.05058594 151.89429688 142.10117187 151.78859375 143.18359375 151.6796875 C147.68463125 150.87806977 151.05850665 149.25081189 155.0625 147.125 C155.74376953 146.77308594 156.42503906 146.42117187 157.12695312 146.05859375 C158.40747722 145.39680512 159.68587844 144.73087656 160.96118164 144.05908203 C163.62546759 142.67509539 166.31256637 141.3383681 169 140 C169.80219971 140.81267334 170.60439941 141.62534668 171.4309082 142.46264648 C174.40581107 145.47372371 177.38730697 148.47819822 180.37084961 151.48071289 C181.66172461 152.78165129 182.95079964 154.08437829 184.23803711 155.38891602 C186.0875885 157.26270045 187.94349751 159.12997726 189.80078125 160.99609375 C190.66344353 161.87423988 190.66344353 161.87423988 191.54353333 162.77012634 C194.82844745 166.05682276 194.82844745 166.05682276 199 168 C197.30927052 171.80414133 195.28575779 173.71190867 192.09375 176.2890625 C190.63345037 177.48236705 189.21893002 178.73296059 187.84375 180.0234375 C180.86771786 186.27861298 173.97313782 188.11934235 165 190 C159.93483858 191.0793227 159.93483858 191.0793227 155.14526367 192.9519043 C144.77364509 198.01908975 133.35450135 197.22793414 122.1875 196.6875 C120.60878738 196.62405292 119.03001009 196.56219419 117.45117188 196.50195312 C113.63312375 196.35288237 109.8165886 196.18253389 106 196 C106 195.34 106 194.68 106 194 C99.90748019 192.74733237 95.36739971 192.15934105 90 195.6875 C86.54937911 198.2437504 83.90602665 200.99379814 82.125 204.9375 C79.53327521 209.68899544 75.52481467 212.30665794 71 215 C69.84595507 216.05357514 68.70070734 217.11683463 67.5625 218.1875 C65.2246721 220.19783046 64.11616845 220.97033997 61.0625 221.75 C57.22700167 220.81069429 54.93735777 219.00816489 51.9296875 216.5078125 C50.0857928 214.95323532 50.0857928 214.95323532 48.05078125 214.078125 C45.34185493 212.65400373 43.47839505 210.78015508 41.3125 208.625 C40.52488281 207.85414063 39.73726562 207.08328125 38.92578125 206.2890625 C36.96434159 203.95761495 36.68104853 202.85010227 36 200 C34.3441249 198.01050428 34.3441249 198.01050428 32.25 196.25 C31.23679688 195.32960937 31.23679688 195.32960937 30.203125 194.390625 C27.58916125 192.74067625 26.03478294 192.72411064 23 193 C23 193.66 23 194.32 23 195 C9.80867949 196.94890083 -2.71137582 196.96978125 -16 196 C-16 195.67 -16 195.34 -16 195 C-5.44 194.67 5.12 194.34 16 194 C8.760625 194.0928125 8.760625 194.0928125 1.375 194.1875 C-19.24028815 194.2690164 -43.25387248 193.56198921 -62 184 C-62.99 183.67 -63.98 183.34 -65 183 C-65.28875 182.401875 -65.5775 181.80375 -65.875 181.1875 C-67.85095001 177.34537498 -71.4767288 175.34884747 -75 173 C-75 172.34 -75 171.68 -75 171 C-75.66 171 -76.32 171 -77 171 C-77 170.34 -77 169.68 -77 169 C-76.18341919 168.91468018 -76.18341919 168.91468018 -75.3503418 168.82763672 C-71.95941277 167.63357321 -69.8615282 165.27014253 -67.39453125 162.7578125 C-66.86985764 162.23363739 -66.34518402 161.70946228 -65.80461121 161.16940308 C-64.69922028 160.06167552 -63.59751173 158.95026275 -62.49926758 157.83544922 C-60.81682486 156.12938558 -59.12143108 154.43705873 -57.42382812 152.74609375 C-56.35076747 151.66745701 -55.27847514 150.58805524 -54.20703125 149.5078125 C-53.69977005 149.00146271 -53.19250885 148.49511292 -52.6698761 147.97341919 C-50.39170308 145.64879691 -49.04478875 144.13436624 -48 141 C-46.68693895 141.51941727 -45.37461946 142.04070873 -44.0625 142.5625 C-43.14726563 142.92472656 -42.23203125 143.28695312 -41.2890625 143.66015625 C-38.89029076 144.63732811 -36.51875141 145.64198609 -34.1484375 146.68359375 C-17.61322595 153.87858723 -3.04847637 156.7132219 15 156 C15 155.34 15 154.68 15 154 C16.0828125 154.3403125 16.0828125 154.3403125 17.1875 154.6875 C20.013623 155.18816134 20.013623 155.18816134 22.6875 154.1875 C26.25413434 150.8136567 26.4308506 146.74008006 27 142 C27 134.304269 24.21072708 126.31609062 20 120 C19.67 119.01 19.34 118.02 19 117 C18.01 116.34 17.02 115.68 16 115 C15.88011719 114.41476563 15.76023438 113.82953125 15.63671875 113.2265625 C14.66620676 109.83274755 12.27028161 107.78381253 9.8125 105.375 C9.28366211 104.85373535 8.75482422 104.3324707 8.20996094 103.79541016 C4.27576475 100.01835242 0.1503186 96.59474531 -4.25 93.375 C-4.80324951 92.96169434 -5.35649902 92.54838867 -5.92651367 92.12255859 C-9.00446458 89.95775587 -11.72633549 88.70504929 -15.359375 87.9140625 C-16.56078125 87.61242187 -17.7621875 87.31078125 -19 87 C-19.33 86.01 -19.66 85.02 -20 84 C-21.65 84 -23.3 84 -25 84 C-25 83.34 -25 82.68 -25 82 C-28.65022862 80.61774431 -32.3183841 79.2962048 -36 78 C-37.216875 77.566875 -38.43375 77.13375 -39.6875 76.6875 C-48.38937453 74.66005295 -61.7318583 75.84062878 -70 79 C-72.5404226 81.33830958 -72.5404226 81.33830958 -74 84 C-74.66 84.66 -75.32 85.32 -76 86 C-77.55686127 90.20352542 -77.74970623 95.07218398 -76.125 99.25 C-75.10012328 100.84425268 -74.05130159 102.42304761 -73 104 C-70 108.61538462 -70 108.61538462 -70 112 C-69.01 112.495 -69.01 112.495 -68 113 C-64 118.52941176 -64 118.52941176 -64 121 C-63.34 121 -62.68 121 -62 121 C-59.26926655 125.40440879 -57.27070209 128.70139265 -57 134 C-58.7824707 136.54541016 -58.7824707 136.54541016 -61.42578125 139.0390625 C-62.36744141 139.94914063 -63.30910156 140.85921875 -64.27929688 141.796875 C-65.28950751 142.74050172 -66.30058476 143.68320147 -67.3125 144.625 C-69.27448959 146.48449523 -71.22549823 148.35471622 -73.17578125 150.2265625 C-74.05145752 151.04721191 -74.92713379 151.86786133 -75.8293457 152.71337891 C-77.78615864 154.7747342 -78.93071607 156.39499861 -80 159 C-84.16179465 159.34681622 -85.82011579 158.63162831 -89 156 C-89.66 156 -90.32 156 -91 156 C-91.226875 155.071875 -91.45375 154.14375 -91.6875 153.1875 C-93.24410629 149.40717045 -94.52103373 148.91343145 -98 147 C-98.69937532 145.68352881 -99.36729133 144.34977849 -100 143 C-101.32848691 141.99357052 -102.66150329 140.99307821 -104 140 C-104.33 139.01 -104.66 138.02 -105 137 C-107.03268602 134.83656989 -107.03268602 134.83656989 -110 133 C-110.144375 132.34 -110.28875 131.68 -110.4375 131 C-110.623125 130.34 -110.80875 129.68 -111 129 C-111.66 128.67 -112.32 128.34 -113 128 C-113.66 127.67 -114.32 127.34 -115 127 C-115.36162029 125.67405895 -115.69728039 124.34061543 -116 123 C-116.99 122.67 -117.98 122.34 -119 122 C-119.33 121.01 -119.66 120.02 -120 119 C-120.66 118.67 -121.32 118.34 -122 118 C-122.97816242 107.46769303 -117.3930941 100.68298504 -111.70019531 92.49365234 C-108.57371139 87.90808273 -105.6456474 83.19516459 -102.6875 78.5 C-98.93576177 72.56874573 -95.14987285 66.67750227 -91.17504883 60.89257812 C-89.83940586 58.90446523 -89.83940586 58.90446523 -89 56 C-88.34 56 -87.68 56 -87 56 C-86.773125 55.34 -86.54625 54.68 -86.3125 54 C-81.92 43.96 -81.92 43.96 -78 42 C-78.33 41.34 -78.66 40.68 -79 40 C-78.34 40 -77.68 40 -77 40 C-76.67 39.01 -76.34 38.02 -76 37 C-75.34 36.67 -74.68 36.34 -74 36 C-73.71125 35.278125 -73.4225 34.55625 -73.125 33.8125 C-71.80563053 30.51407634 -70.11804962 27.84612918 -68 25 C-67.34 25 -66.68 25 -66 25 C-65.92652344 24.32582031 -65.85304687 23.65164062 -65.77734375 22.95703125 C-64.74096355 19.01462014 -62.78776463 16.06892716 -60.5625 12.6875 C-60.15451172 12.04232422 -59.74652344 11.39714844 -59.32617188 10.73242188 C-58.27686704 9.11481492 -57.14441059 7.55177876 -56 6 C-55.34 6 -54.68 6 -54 6 C-53.34 4.02 -52.68 2.04 -52 0 C-39.96999836 -0.16631339 -28.0104862 0.3475014 -16 1 C-16 0.67 -16 0.34 -16 0 C-10.39436958 -0.82622671 -5.57710648 -1.06795656 0 0 Z M-57 9 C-56 11 -56 11 -56 11 Z M108 10 C109 12 109 12 109 12 Z M109 12 C110 14 110 14 110 14 Z M137 66 C138 68 138 68 138 68 Z M-60 74 C-60 74.33 -60 74.66 -60 75 C-58.35 75 -56.7 75 -55 75 C-55 74.67 -55 74.34 -55 74 C-56.65 74 -58.3 74 -60 74 Z M-64 75 C-60 76 -60 76 -60 76 Z M-100 76 C-99 78 -99 78 -99 78 Z M-75 104 C-74 106 -74 106 -74 106 Z M26 127 C27 129 27 129 27 129 Z M27 130 C28 134 28 134 28 134 Z M93 130 C94 132 94 132 94 132 Z M92 132 C92 135.96 92 139.92 92 144 C92.33 144 92.66 144 93 144 C93 140.04 93 136.08 93 132 C92.67 132 92.34 132 92 132 Z M93 146 C94 148 94 148 94 148 Z M147 192 C147 192.33 147 192.66 147 193 C148.98 193 150.96 193 153 193 C153 192.67 153 192.34 153 192 C151.02 192 149.04 192 147 192 Z M138 193 C138 193.33 138 193.66 138 194 C140.31 194 142.62 194 145 194 C145 193.67 145 193.34 145 193 C142.69 193 140.38 193 138 193 Z M119 194 C119 194.33 119 194.66 119 195 C125.27 195 131.54 195 138 195 C138 194.67 138 194.34 138 194 C131.73 194 125.46 194 119 194 Z "
        fill="#142230" transform="translate(139,52)" />
    <path
        d="M0 0 C0.79411285 -0.02255859 1.58822571 -0.04511719 2.40640259 -0.06835938 C4.44677734 0.21875 4.44677734 0.21875 7.07177734 2.84375 C7.89934877 4.28201206 8.68560216 5.74427228 9.44677734 7.21875 C10.6092082 9.26283131 11.77645178 11.30417848 12.94677734 13.34375 C13.2785498 13.93349609 13.61032227 14.52324219 13.95214844 15.13085938 C17.57019387 21.54025074 21.46734892 27.76966998 25.36206055 34.01342773 C29.89125229 41.28603064 34.30919399 48.62055519 38.66455078 55.99853516 C39.13280273 56.78663574 39.60105469 57.57473633 40.08349609 58.38671875 C40.49301514 59.08047607 40.90253418 59.7742334 41.32446289 60.48901367 C42.4603621 62.37120498 42.4603621 62.37120498 44.44677734 64.21875 C45.62115103 66.22313216 46.76124766 68.24765571 47.88427734 70.28125 C51.5776701 76.8993465 55.62949456 83.23974193 59.8527832 89.53149414 C60.53159546 90.55617798 60.53159546 90.55617798 61.22412109 91.6015625 C61.62880615 92.20371582 62.03349121 92.80586914 62.45043945 93.42626953 C63.44677734 95.21875 63.44677734 95.21875 63.96459961 97.32373047 C64.32894102 99.43087504 64.32894102 99.43087504 66.38427734 101.15625 C68.66431562 103.43628828 69.39200828 105.20512411 70.44677734 108.21875 C70.79740234 108.899375 71.14802734 109.58 71.50927734 110.28125 C72.51680868 112.36348143 73.16098249 113.91557972 73.44677734 116.21875 C72.30224609 118.32421875 72.30224609 118.32421875 70.63427734 120.40625 C70.09158203 121.10105469 69.54888672 121.79585938 68.98974609 122.51171875 C67.44677734 124.21875 67.44677734 124.21875 65.44677734 125.21875 C65.11677734 125.87875 64.78677734 126.53875 64.44677734 127.21875 C63.44677734 129.21875 63.44677734 129.21875 61.44677734 130.21875 C61.15802734 130.858125 60.86927734 131.4975 60.57177734 132.15625 C59.44677734 134.21875 59.44677734 134.21875 57.56274414 135.15283203 C53.98526079 136.95498875 51.81060742 140.07154719 49.25927734 143.09375 C48.71335937 143.71894531 48.16744141 144.34414062 47.60498047 144.98828125 C47.08484375 145.59800781 46.56470703 146.20773438 46.02880859 146.8359375 C45.55677002 147.38878418 45.08473145 147.94163086 44.59838867 148.51123047 C43.32569808 150.3982769 42.98487703 152.02888315 42.44677734 154.21875 C40.57177734 155.28125 40.57177734 155.28125 38.44677734 156.21875 C36.73756145 157.7599812 36.73756145 157.7599812 35.44677734 159.21875 C32.33065037 157.84026573 30.27151007 156.26240895 27.91552734 153.8125 C27.26970703 153.15121094 26.62388672 152.48992187 25.95849609 151.80859375 C24.61735026 150.41536458 23.27620443 149.02213542 21.93505859 147.62890625 C21.28923828 146.96761719 20.64341797 146.30632812 19.97802734 145.625 C19.39601563 145.01978516 18.81400391 144.41457031 18.21435547 143.79101562 C16.38570157 142.16442293 14.62947917 141.29334527 12.44677734 140.21875 C11.06809454 138.58939759 9.73403641 136.92125393 8.44677734 135.21875 C7.46447236 134.2013627 6.47208138 133.19278883 5.44677734 132.21875 C7.44677734 130.21875 7.44677734 130.21875 9.94677734 128.46875 C12.96654283 125.75096106 13.25261058 124.08223071 14.44677734 120.21875 C16.3507864 116.49797759 18.38860725 112.85614495 20.44677734 109.21875 C21.10677734 109.21875 21.76677734 109.21875 22.44677734 109.21875 C22.63240234 107.3625 22.63240234 107.3625 22.82177734 105.46875 C23.26243231 101.91203488 23.82310966 98.84241768 26.44677734 96.21875 C26.48770672 93.88577567 26.48919458 91.55169775 26.44677734 89.21875 C25.45677734 89.71375 25.45677734 89.71375 24.44677734 90.21875 C24.44677734 88.56875 24.44677734 86.91875 24.44677734 85.21875 C23.78677734 84.88875 23.12677734 84.55875 22.44677734 84.21875 C21.44034984 82.55595673 20.44092327 80.88891516 19.44677734 79.21875 C17.36889757 76.30971832 16.43333582 76.21624395 12.75927734 75.53125 C11.66615234 75.428125 10.57302734 75.325 9.44677734 75.21875 C9.44677734 75.54875 9.44677734 75.87875 9.44677734 76.21875 C6.6550468 76.24565104 3.86357386 76.26554053 1.07177734 76.28125 C0.27771484 76.28962891 -0.51634766 76.29800781 -1.33447266 76.30664062 C-7.32666016 76.33203125 -7.32666016 76.33203125 -9.55322266 75.21875 C-9.55322266 75.87875 -9.55322266 76.53875 -9.55322266 77.21875 C-12.02822266 77.71375 -12.02822266 77.71375 -14.55322266 78.21875 C-14.55322266 77.55875 -14.55322266 76.89875 -14.55322266 76.21875 C-15.87322266 75.88875 -17.19322266 75.55875 -18.55322266 75.21875 C-19.04822266 71.75375 -19.04822266 71.75375 -19.55322266 68.21875 C-20.21322266 68.21875 -20.87322266 68.21875 -21.55322266 68.21875 C-22.21322266 65.57875 -22.87322266 62.93875 -23.55322266 60.21875 C-24.21322266 60.21875 -24.87322266 60.21875 -25.55322266 60.21875 C-27.77871667 56.15480441 -28.82967007 52.76679482 -29.55322266 48.21875 C-31.40924301 46.30653559 -31.40924301 46.30653559 -32.95556641 45.03515625 C-35.27848808 42.39418173 -36.62398525 39.3097508 -38.11572266 36.15625 C-40.31422606 31.34827222 -40.31422606 31.34827222 -43.55322266 27.21875 C-44.63736562 25.24145299 -45.67363592 23.23762962 -46.67822266 21.21875 C-47.48646484 19.61 -47.48646484 19.61 -48.31103516 17.96875 C-49.55322266 15.21875 -49.55322266 15.21875 -49.55322266 13.21875 C-50.21322266 12.88875 -50.87322266 12.55875 -51.55322266 12.21875 C-51.22322266 11.22875 -50.89322266 10.23875 -50.55322266 9.21875 C-51.21322266 8.55875 -51.87322266 7.89875 -52.55322266 7.21875 C-52.88322266 6.22875 -53.21322266 5.23875 -53.55322266 4.21875 C-46.90089269 3.64313322 -40.24801411 3.07420554 -33.59472656 2.50976562 C-31.33483147 2.3172692 -29.07506275 2.1232827 -26.81542969 1.92773438 C-23.5538753 1.64574732 -20.29189305 1.36925119 -17.02978516 1.09375 C-15.53229233 0.96250732 -15.53229233 0.96250732 -14.00454712 0.82861328 C-9.34022401 0.43961395 -4.6793942 0.12570909 0 0 Z M28.44677734 42.21875 C29.44677734 44.21875 29.44677734 44.21875 29.44677734 44.21875 Z M42.44677734 65.21875 C43.44677734 67.21875 43.44677734 67.21875 43.44677734 67.21875 Z M-7.55322266 74.21875 C-7.55322266 74.54875 -7.55322266 74.87875 -7.55322266 75.21875 C-4.58322266 75.21875 -1.61322266 75.21875 1.44677734 75.21875 C1.44677734 74.88875 1.44677734 74.55875 1.44677734 74.21875 C-1.52322266 74.21875 -4.49322266 74.21875 -7.55322266 74.21875 Z M23.44677734 104.21875 C24.44677734 106.21875 24.44677734 106.21875 24.44677734 106.21875 Z "
        fill="#142230" transform="translate(310.55322265625,51.78125)" />
    <path
        d="M0 0 C1 1 1 1 1.09765625 3.28515625 C1.08605469 4.20167969 1.07445312 5.11820312 1.0625 6.0625 C1.05347656 6.98160156 1.04445312 7.90070313 1.03515625 8.84765625 C1.02355469 9.55792969 1.01195312 10.26820313 1 11 C0.34 11 -0.32 11 -1 11 C-0.505 11.99 -0.505 11.99 0 13 C0.22010789 14.66428333 0.39096902 16.33524067 0.53515625 18.0078125 C0.66567383 19.48701172 0.66567383 19.48701172 0.79882812 20.99609375 C0.9293457 22.54490234 0.9293457 22.54490234 1.0625 24.125 C1.15337891 25.16527344 1.24425781 26.20554687 1.33789062 27.27734375 C1.56222369 29.85127048 1.78276775 32.42546585 2 35 C2.66 35 3.32 35 4 35 C4.94120241 43.16674095 4.94120241 50.83325905 4 59 C4.99 59.495 4.99 59.495 6 60 C5.34 60 4.68 60 4 60 C4 61.65 4 63.3 4 65 C3.26523438 65.25136719 2.53046875 65.50273437 1.7734375 65.76171875 C-1.20553376 67.09176648 -3.0116159 68.58136303 -5.375 70.8125 C-8.12640804 73.3526146 -10.82692804 75.66546221 -13.9375 77.75 C-17.05462715 79.68173745 -17.05462715 79.68173745 -18.125 82.25 C-18.41375 82.8275 -18.7025 83.405 -19 84 C-20.66666667 84.33333333 -22.33333333 84.66666667 -24 85 C-26.53104358 86.42305562 -28.93961651 87.94555422 -31 90 C-31 90.99 -31 91.98 -31 93 C-31.66 93 -32.32 93 -33 93 C-33 93.66 -33 94.32 -33 95 C-42.05660377 96.35849057 -42.05660377 96.35849057 -45 95 C-48.97680383 89.03479426 -48.04770386 82.06172145 -47.625 75.1875 C-47.58117187 74.32962891 -47.53734375 73.47175781 -47.4921875 72.58789062 C-47.13419892 66.26839785 -47.13419892 66.26839785 -46 64 C-46.83333333 61.83333333 -46.83333333 61.83333333 -49 61 C-49.12010487 53.98053779 -49.15769615 46.94617691 -48 40 C-47.505 39.505 -47.505 39.505 -47 39 C-47.08963062 37.30858344 -47.24577676 35.62040398 -47.4375 33.9375 C-47.59025391 32.55884766 -47.59025391 32.55884766 -47.74609375 31.15234375 C-47.82988281 30.44207031 -47.91367188 29.73179687 -48 29 C-47.29875 28.608125 -46.5975 28.21625 -45.875 27.8125 C-42.60930494 25.75369224 -39.86061265 23.59450914 -37 21 C-37 20.34 -37 19.68 -37 19 C-36.05125 18.814375 -35.1025 18.62875 -34.125 18.4375 C-28.77586271 16.93271189 -24.19013343 13.57468124 -20 10 C-20 9.34 -20 8.68 -20 8 C-19.175 7.79375 -18.35 7.5875 -17.5 7.375 C-14.30645841 6.12039437 -12.60080579 4.99565703 -10 2.875 C-6.58685992 0.1824845 -4.45361415 -0.76037315 0 0 Z M-1 2 C-1 4.64 -1 7.28 -1 10 C-0.67 10 -0.34 10 0 10 C0 7.36 0 4.72 0 2 C-0.33 2 -0.66 2 -1 2 Z M-47 30 C-46 32 -46 32 -46 32 Z "
        fill="#142230" transform="translate(250,252)" />
    <path
        d="M0 0 C8.3767313 2.32686981 8.3767313 2.32686981 10.5625 4.6875 C14.32925294 8.26108612 19.05635282 12.35219032 24.21875 13.48828125 C24.8065625 13.65714844 25.394375 13.82601563 26 14 C26.495 15.485 26.495 15.485 27 17 C29.28891028 18.37334617 31.45752447 19.15250816 34 20 C34.495 21.485 34.495 21.485 35 23 C36.75397955 24.85356471 36.75397955 24.85356471 38.875 26.625 C39.57367188 27.23601562 40.27234375 27.84703125 40.9921875 28.4765625 C43.02136344 30.1857412 43.02136344 30.1857412 46 31 C45.9292627 31.75829102 45.85852539 32.51658203 45.78564453 33.29785156 C44.93742516 43.50331693 44.84665634 53.65546321 44.86962891 63.890625 C44.87506858 66.78650967 44.86961051 69.68224455 44.86328125 72.578125 C44.86394075 74.42187534 44.86521923 76.26562559 44.8671875 78.109375 C44.86516327 78.9738324 44.86313904 79.83828979 44.86105347 80.72894287 C44.75371737 84.99945309 44.75371737 84.99945309 46 89 C46.039992 90.99960012 46.04346799 93.00047242 46 95 C42.55824478 97.14699969 40.2279708 97.09856795 36.25 96.625 C35.26515625 96.51414062 34.2803125 96.40328125 33.265625 96.2890625 C32.51796875 96.19367188 31.7703125 96.09828125 31 96 C31 95.01 31 94.02 31 93 C29.06409636 90.99664841 29.06409636 90.99664841 26.4375 89 C25.43976563 88.20851563 24.44203125 87.41703125 23.4140625 86.6015625 C19.12832889 83.3046503 14.74919158 80.13474792 10.3659668 76.96923828 C6.1994656 73.94227919 2.26998619 70.77669871 -1.484375 67.2421875 C-3.09778564 65.76919279 -3.09778564 65.76919279 -6 65 C-6.02515393 60.84147507 -6.04306897 56.68299316 -6.05493164 52.52441406 C-6.05988898 51.11652859 -6.06665686 49.70864806 -6.07543945 48.30078125 C-6.23520119 21.9870827 -6.23520119 21.9870827 -3 16 C-2.71121265 13.59162245 -2.50954974 11.17189532 -2.375 8.75 C-2.30023438 7.48671875 -2.22546875 6.2234375 -2.1484375 4.921875 C-2.09945312 3.95765625 -2.05046875 2.9934375 -2 2 C-1.34 2 -0.68 2 0 2 C0 1.34 0 0.68 0 0 Z M-4 34 C-5.13955862 40.32589627 -5.1142637 46.52278338 -5.0625 52.9375 C-5.05798828 54.00291016 -5.05347656 55.06832031 -5.04882812 56.16601562 C-5.03711787 58.77740291 -5.02071724 61.38867124 -5 64 C-4.67 64 -4.34 64 -4 64 C-3.20307162 53.96724089 -2.87152925 44.06354218 -3 34 C-3.33 34 -3.66 34 -4 34 Z M43 87 C43 89.31 43 91.62 43 94 C43.33 94 43.66 94 44 94 C44 91.69 44 89.38 44 87 C43.67 87 43.34 87 43 87 Z "
        fill="#142230" transform="translate(152,251)" />
    <path
        d="M0 0 C16.47498939 2.88210112 16.47498939 2.88210112 23.88671875 5.44921875 C26.32157611 6.08381189 28.49433724 6.09215222 31 6 C31 6.66 31 7.32 31 8 C33.31 8.99 35.62 9.98 38 11 C38 17.66666667 38 24.33333333 38 31 C38.33 31 38.66 31 39 31 C39.33 40.9 39.66 50.8 40 61 C35.66145578 62.08463606 33.31717894 62.05446977 29 61 C26.33984375 58.78515625 26.33984375 58.78515625 23.9375 56.0625 C20.4026368 52.08076593 18.03589406 50.59291401 13 49 C12.505 47.515 12.505 47.515 12 46 C10.515 46.495 10.515 46.495 9 47 C9 46.34 9 45.68 9 45 C8.34 45 7.68 45 7 45 C6.505 43.515 6.505 43.515 6 42 C5.34 42 4.68 42 4 42 C2.29915181 36.67067568 1.47986031 31.56890517 1 26 C0.34 26 -0.32 26 -1 26 C-0.96744792 24.046875 -0.93489583 22.09375 -0.90234375 20.140625 C-0.92626692 18.0162569 -0.92626692 18.0162569 -1.4921875 16.08203125 C-2.12320324 13.4948667 -2.16939694 11.0986499 -2.1875 8.4375 C-2.20167969 7.48746094 -2.21585937 6.53742188 -2.23046875 5.55859375 C-2 3 -2 3 0 0 Z M37 35 C37 41.93 37 48.86 37 56 C37.33 56 37.66 56 38 56 C38 49.07 38 42.14 38 35 C37.67 35 37.34 35 37 35 Z M37 57 C38 60 38 60 38 60 Z "
        fill="#142230" transform="translate(104,246)" />
    <path
        d="M0 0 C2.33551259 7.8473223 1.36999255 16.29752422 -1 24 C-1.66 24 -2.32 24 -3 24 C-2.94779297 25.24716797 -2.94779297 25.24716797 -2.89453125 26.51953125 C-2.86746094 27.60621094 -2.84039062 28.69289063 -2.8125 29.8125 C-2.76029297 31.43091797 -2.76029297 31.43091797 -2.70703125 33.08203125 C-3 36 -3 36 -4.31640625 37.71484375 C-4.87199219 38.13894531 -5.42757812 38.56304687 -6 39 C-6.49757813 39.44859375 -6.99515625 39.8971875 -7.5078125 40.359375 C-11.57285486 43.85491867 -15.75778343 47.11844362 -20.08203125 50.2890625 C-22.10611135 52.09465738 -22.81256071 53.60565521 -24 56 C-25.62109375 57.1953125 -25.62109375 57.1953125 -27.4375 58.125 C-29.74981368 59.33359592 -31.81149344 60.54099563 -34 62 C-35.65 61.67 -37.3 61.34 -39 61 C-39.33 54.4 -39.66 47.8 -40 41 C-40.33 41 -40.66 41 -41 41 C-42.68439193 30.87088636 -41.26514512 21.08979372 -40 11 C-37.03 9.68 -34.06 8.36 -31 7 C-31 6.34 -31 5.68 -31 5 C-28.25720758 4.41819555 -25.54169849 3.93808231 -22.76171875 3.5625 C-17.8798297 2.8324979 -13.114426 1.7209136 -8.3046875 0.62109375 C-5.42571787 0.0800108 -2.91456571 -0.12648115 0 0 Z M-1 2 C0 4 0 4 0 4 Z M-39 11 C-38 15 -38 15 -38 15 Z M-1 12 C0 14 0 14 0 14 Z M-39 16 C-40.17402193 23.33763707 -40.09377123 30.58165418 -40 38 C-39.67 38 -39.34 38 -39 38 C-38.67 30.74 -38.34 23.48 -38 16 C-38.33 16 -38.66 16 -39 16 Z M-2 16 C-1 19 -1 19 -1 19 Z M-3 20 C-2 22 -2 22 -2 22 Z "
        fill="#142230" transform="translate(298,246)" />
    <path
        d="M0 0 C1.2409845 0.02017181 2.48196899 0.04034363 3.76055908 0.06112671 C5.10958377 0.09342704 6.45860304 0.12595391 7.80761719 0.15869141 C9.19193881 0.18487153 10.576278 0.21013749 11.96063232 0.23452759 C15.59731339 0.30105164 19.23362331 0.37997127 22.86999512 0.46148682 C26.58343299 0.54253125 30.29708803 0.61183383 34.01074219 0.68212891 C41.29225529 0.82168844 48.57341625 0.97434562 55.85449219 1.13525391 C55.85449219 1.46525391 55.85449219 1.79525391 55.85449219 2.13525391 C34.07449219 2.13525391 12.29449219 2.13525391 -10.14550781 2.13525391 C-6.01964475 0.07232237 -4.46405207 -0.09073277 0 0 Z "
        fill="#142230" transform="translate(187.1455078125,52.86474609375)" />
    <path
        d="M0 0 C0.33 0 0.66 0 1 0 C2.09043051 24.43318366 2.09043051 24.43318366 2.1875 33.9375 C2.20167969 35.08089844 2.21585938 36.22429687 2.23046875 37.40234375 C2 40 2 40 0 42 C0 28.14 0 14.28 0 0 Z "
        fill="#142230" transform="translate(197,296)" />
    <path
        d="M0 0 C3.15204981 1.39347376 5.26171773 3.02485079 7.671875 5.4765625 C8.33574219 6.146875 8.99960937 6.8171875 9.68359375 7.5078125 C10.36550781 8.20648438 11.04742187 8.90515625 11.75 9.625 C12.44738281 10.33140625 13.14476562 11.0378125 13.86328125 11.765625 C15.58012488 13.50598703 17.29211832 15.25084981 19 17 C18.67 17.66 18.34 18.32 18 19 C14.99599642 16.02484693 11.99747845 13.04422593 9 10.0625 C8.14148438 9.21236328 7.28296875 8.36222656 6.3984375 7.48632812 C5.58632813 6.67744141 4.77421875 5.86855469 3.9375 5.03515625 C3.18339844 4.2862915 2.42929687 3.53742676 1.65234375 2.76586914 C0 1 0 1 0 0 Z "
        fill="#142230" transform="translate(312,195)" />
    <path
        d="M0 0 C7.02673515 0.50343987 14.01940909 1.04187968 21 2 C19 4 19 4 17.1875 4.046875 C16.465625 3.94890625 15.74375 3.8509375 15 3.75 C14.20722656 3.64300781 13.41445312 3.53601563 12.59765625 3.42578125 C8.37375985 2.73344334 4.18421727 1.89973774 0 1 C0 0.67 0 0.34 0 0 Z "
        fill="#142230" transform="translate(101,244)" />
    <path
        d="M0 0 C0.66 0 1.32 0 2 0 C3.25 7.625 3.25 7.625 1 11 C0.67 8.69 0.34 6.38 0 4 C-0.99 4.495 -0.99 4.495 -2 5 C-1.125 1.125 -1.125 1.125 0 0 Z "
        fill="#142230" transform="translate(337,137)" />
    <path d="M0 0 C6.27 0 12.54 0 19 0 C19 0.33 19 0.66 19 1 C12.73 1 6.46 1 0 1 C0 0.67 0 0.34 0 0 Z " fill="#142230"
        transform="translate(135,207)" />
    <path d="M0 0 C5.94 0 11.88 0 18 0 C18 0.33 18 0.66 18 1 C12.06 1 6.12 1 0 1 C0 0.67 0 0.34 0 0 Z " fill="#142230"
        transform="translate(104,51)" />
    <path d="M0 0 C5.61 0 11.22 0 17 0 C17 0.33 17 0.66 17 1 C11.39 1 5.78 1 0 1 C0 0.67 0 0.34 0 0 Z " fill="#142230"
        transform="translate(246,208)" />
    <path
        d="M0 0 C2.30143236 3.45214853 2.13833854 4.23479324 1.625 8.1875 C1.51414063 9.08855469 1.40328125 9.98960937 1.2890625 10.91796875 C1.19367188 11.60503906 1.09828125 12.29210937 1 13 C0.67 13 0.34 13 0 13 C0 8.71 0 4.42 0 0 Z "
        fill="#142230" transform="translate(252,274)" />
    <path
        d="M0 0 C0 0.33 0 0.66 0 1 C-4.29 1 -8.58 1 -13 1 C-13 0.67 -13 0.34 -13 0 C-8.38926889 -1.29676812 -4.66159911 -0.71109139 0 0 Z "
        fill="#142230" transform="translate(104,50)" />
    <path d="M0 0 C0.33 0 0.66 0 1 0 C1 3.96 1 7.92 1 12 C0.67 12 0.34 12 0 12 C0 8.04 0 4.08 0 0 Z " fill="#142230"
        transform="translate(198,284)" />
    <path d="M0 0 C3.63 0.33 7.26 0.66 11 1 C11 1.33 11 1.66 11 2 C7.37 1.67 3.74 1.34 0 1 C0 0.67 0 0.34 0 0 Z "
        fill="#142230" transform="translate(89,128)" />
    <path d="M0 0 C-3.63 0 -7.26 0 -11 0 C-11 -0.33 -11 -0.66 -11 -1 C-3.375 -2.25 -3.375 -2.25 0 0 Z " fill="#142230"
        transform="translate(292,53)" />
    <path d="M0 0 C-3.63 0 -7.26 0 -11 0 C-11 -0.33 -11 -0.66 -11 -1 C-3.375 -2.25 -3.375 -2.25 0 0 Z " fill="#142230"
        transform="translate(303,52)" />
    <path d="M0 0 C0.33 0 0.66 0 1 0 C1 3.63 1 7.26 1 11 C0.67 11 0.34 11 0 11 C0 7.37 0 3.74 0 0 Z " fill="#142230"
        transform="translate(100,249)" />
    <path d="M0 0 C1.76462683 3.08809695 2 4.23312136 2 8 C1.34 8 0.68 8 0 8 C0 5.36 0 2.72 0 0 Z " fill="#142230"
        transform="translate(251,265)" />
    <path d="M0 0 C0.33 0 0.66 0 1 0 C1 2.97 1 5.94 1 9 C0.67 9 0.34 9 0 9 C-1.125 2.25 -1.125 2.25 0 0 Z "
        fill="#142230" transform="translate(148,258)" />
    <path d="M0 0 C3.3 0 6.6 0 10 0 C10 0.33 10 0.66 10 1 C6.7 1 3.4 1 0 1 C0 0.67 0 0.34 0 0 Z " fill="#142230"
        transform="translate(258,54)" />
    <path d="M0 0 C3.3 0 6.6 0 10 0 C10 0.33 10 0.66 10 1 C6.7 1 3.4 1 0 1 C0 0.67 0 0.34 0 0 Z " fill="#142230"
        transform="translate(271,53)" />
    <path d="M0 0 C0.33 0 0.66 0 1 0 C1 2.31 1 4.62 1 7 C0.34 6.67 -0.32 6.34 -1 6 C-0.67 4.02 -0.34 2.04 0 0 Z "
        fill="#142230" transform="translate(257,300)" />
    <path d="M0 0 C0.33 0 0.66 0 1 0 C1 2.64 1 5.28 1 8 C0.67 8 0.34 8 0 8 C0 5.36 0 2.72 0 0 Z " fill="#142230"
        transform="translate(201,284)" />
    <path d="M0 0 C0.33 0 0.66 0 1 0 C1 2.64 1 5.28 1 8 C0.67 8 0.34 8 0 8 C0 5.36 0 2.72 0 0 Z " fill="#142230"
        transform="translate(299,250)" />
    <path d="M0 0 C0.33 0.99 0.66 1.98 1 3 C-0.32 3.33 -1.64 3.66 -3 4 C-2.01 2.68 -1.02 1.36 0 0 Z " fill="#142230"
        transform="translate(76,192)" />
    <path d="M0 0 C1.32 1.32 2.64 2.64 4 4 C2.68 3.34 1.36 2.68 0 2 C0 1.34 0 0.68 0 0 Z " fill="#142230"
        transform="translate(149,318)" />
    <path d="M0 0 C0 0.99 0 1.98 0 3 C-0.99 3 -1.98 3 -3 3 C-2.01 2.01 -1.02 1.02 0 0 Z " fill="#142230"
        transform="translate(291,285)" />
    <path d="M0 0 C1.98 0 3.96 0 6 0 C4.02 0.99 4.02 0.99 2 2 C1.34 1.34 0.68 0.68 0 0 Z " fill="#142230"
        transform="translate(298,243)" />
    <path d="M0 0 C0.99 0.66 1.98 1.32 3 2 C1.02 2 -0.96 2 -3 2 C-2.01 1.34 -1.02 0.68 0 0 Z " fill="#142230"
        transform="translate(132,205)" />
    <path d="M0 0 C0.33 0 0.66 0 1 0 C1 1.98 1 3.96 1 6 C0.67 6 0.34 6 0 6 C0 4.02 0 2.04 0 0 Z " fill="#142230"
        transform="translate(295,271)" />
    <path d="M0 0 C1.98 0 3.96 0 6 0 C6 0.33 6 0.66 6 1 C4.02 1 2.04 1 0 1 C0 0.67 0 0.34 0 0 Z " fill="#142230"
        transform="translate(197,274)" />
    <path d="M0 0 C1.65 0 3.3 0 5 0 C4.34 0.66 3.68 1.32 3 2 C2.01 1.34 1.02 0.68 0 0 Z " fill="#142230"
        transform="translate(239,246)" />
    <path d="M0 0 C2.475 0.495 2.475 0.495 5 1 C4.01 1.495 4.01 1.495 3 2 C2.01 1.34 1.02 0.68 0 0 Z " fill="#142230"
        transform="translate(105,198)" />
    <path d="M0 0 C0.66 1.32 1.32 2.64 2 4 C1.01 3.01 0.02 2.02 -1 1 C-0.67 0.67 -0.34 0.34 0 0 Z " fill="#142230"
        transform="translate(310,191)" />
    <path d="M0 0 C0.33 0 0.66 0 1 0 C1 1.98 1 3.96 1 6 C0.67 6 0.34 6 0 6 C0 4.02 0 2.04 0 0 Z " fill="#142230"
        transform="translate(62,142)" />
    <path d="M0 0 C0 0.99 0 1.98 0 3 C-0.66 2.67 -1.32 2.34 -2 2 C-1.34 1.34 -0.68 0.68 0 0 Z " fill="#142230"
        transform="translate(249,319)" />
    <path d="M0 0 C1.65 0 3.3 0 5 0 C5 0.33 5 0.66 5 1 C3.35 1 1.7 1 0 1 C0 0.67 0 0.34 0 0 Z " fill="#142230"
        transform="translate(135,309)" />
    <path d="M0 0 C0.99 0.33 1.98 0.66 3 1 C2.67 1.66 2.34 2.32 2 3 C1.34 2.01 0.68 1.02 0 0 Z " fill="#142230"
        transform="translate(192,277)" />
    <path d="M0 0 C0.66 0.33 1.32 0.66 2 1 C1.01 1.66 0.02 2.32 -1 3 C-0.67 2.01 -0.34 1.02 0 0 Z " fill="#142230"
        transform="translate(206,276)" />
    <path d="M0 0 C0.33 0 0.66 0 1 0 C1 1.65 1 3.3 1 5 C0.67 5 0.34 5 0 5 C0 3.35 0 1.7 0 0 Z " fill="#142230"
        transform="translate(104,272)" />
    <path d="M0 0 C1.65 0 3.3 0 5 0 C5 0.33 5 0.66 5 1 C3.35 1 1.7 1 0 1 C0 0.67 0 0.34 0 0 Z " fill="#142230"
        transform="translate(234,245)" />
    <path d="M0 0 C1.65 0 3.3 0 5 0 C5 0.33 5 0.66 5 1 C3.35 1 1.7 1 0 1 C0 0.67 0 0.34 0 0 Z " fill="#142230"
        transform="translate(162,245)" />
    <path d="M0 0 C1.65 0 3.3 0 5 0 C5 0.33 5 0.66 5 1 C3.35 1 1.7 1 0 1 C0 0.67 0 0.34 0 0 Z " fill="#142230"
        transform="translate(304,242)" />
    <path d="M0 0 C1.65 0 3.3 0 5 0 C5 0.33 5 0.66 5 1 C3.35 1 1.7 1 0 1 C0 0.67 0 0.34 0 0 Z " fill="#142230"
        transform="translate(92,242)" />
    <path d="M0 0 C0 0.99 0 1.98 0 3 C-0.66 2.67 -1.32 2.34 -2 2 C-1.34 1.34 -0.68 0.68 0 0 Z " fill="#142230"
        transform="translate(332,227)" />
    <path d="M0 0 C0.66 0.33 1.32 0.66 2 1 C1.01 1.66 0.02 2.32 -1 3 C-0.67 2.01 -0.34 1.02 0 0 Z " fill="#142230"
        transform="translate(75,208)" />
    <path d="M0 0 C0.99 0.33 1.98 0.66 3 1 C1.68 1.33 0.36 1.66 -1 2 C-0.67 1.34 -0.34 0.68 0 0 Z " fill="#142230"
        transform="translate(160,204)" />
    <path d="M0 0 C0.99 0.33 1.98 0.66 3 1 C2.34 1.66 1.68 2.32 1 3 C0.67 2.01 0.34 1.02 0 0 Z " fill="#142230"
        transform="translate(82,183)" />
    <path d="M0 0 C0.33 0 0.66 0 1 0 C1 1.65 1 3.3 1 5 C0.67 5 0.34 5 0 5 C0 3.35 0 1.7 0 0 Z " fill="#0F0F0F"
        transform="translate(336,142)" />
    <path d="M0 0 C1.65 0 3.3 0 5 0 C5 0.33 5 0.66 5 1 C3.35 1 1.7 1 0 1 C0 0.67 0 0.34 0 0 Z " fill="#142230"
        transform="translate(308,50)" />
    <path d="M0 0 C0.99 0.33 1.98 0.66 3 1 C2.01 1 1.02 1 0 1 C0 0.67 0 0.34 0 0 Z " fill="#142230"
        transform="translate(174,338)" />
    <path d="M0 0 C1.485 0.99 1.485 0.99 3 2 C2.01 2 1.02 2 0 2 C0 1.34 0 0.68 0 0 Z " fill="#142230"
        transform="translate(158,326)" />
    <path d="M0 0 C0.66 0.33 1.32 0.66 2 1 C1.01 1 0.02 1 -1 1 C-0.67 0.67 -0.34 0.34 0 0 Z " fill="#142230"
        transform="translate(243,324)" />
    <path d="M0 0 C4 1 4 1 4 1 Z " fill="#142230" transform="translate(260,309)" />
    <path d="M0 0 C1 4 1 4 1 4 Z " fill="#142230" transform="translate(101,260)" />
    <path d="M0 0 C1 4 1 4 1 4 Z " fill="#142230" transform="translate(149,254)" />
    <path d="M0 0 C0.99 0.33 1.98 0.66 3 1 C2.01 1 1.02 1 0 1 C0 0.67 0 0.34 0 0 Z " fill="#142230"
        transform="translate(164,256)" />
    <path d="M0 0 C1.485 0.99 1.485 0.99 3 2 C2.01 2 1.02 2 0 2 C0 1.34 0 0.68 0 0 Z " fill="#142230"
        transform="translate(244,249)" />
    <path d="M0 0 C0.66 0.33 1.32 0.66 2 1 C1.01 1 0.02 1 -1 1 C-0.67 0.67 -0.34 0.34 0 0 Z " fill="#142230"
        transform="translate(227,249)" />
    <path d="M0 0 C4 1 4 1 4 1 Z " fill="#142230" transform="translate(97,243)" />
    <path d="M0 0 C4 1 4 1 4 1 Z " fill="#142230" transform="translate(88,241)" />
    <path d="M0 0 C4 1 4 1 4 1 Z " fill="#142230" transform="translate(272,205)" />
    <path d="M0 0 C4 1 4 1 4 1 Z " fill="#142230" transform="translate(125,205)" />
    <path d="M0 0 C4 1 4 1 4 1 Z " fill="#0A0A0A" transform="translate(121,204)" />
    <path d="M0 0 C0 3 0 3 0 3 Z " fill="#142230" transform="translate(359,196)" />
    <path d="M0 0 C4 1 4 1 4 1 Z " fill="#142230" transform="translate(92,192)" />
    <path d="M0 0 C0 3 0 3 0 3 Z " fill="#142230" transform="translate(365,189)" />
    <path d="M0 0 C0 3 0 3 0 3 Z " fill="#142230" transform="translate(322,176)" />
    <path d="M0 0 C0.99 0.33 1.98 0.66 3 1 C2.01 1 1.02 1 0 1 C0 0.67 0 0.34 0 0 Z " fill="#142230"
        transform="translate(140,151)" />
    <path d="M0 0 C1 4 1 4 1 4 Z " fill="#142230" transform="translate(63,149)" />
    <path d="M0 0 C0.99 0.33 1.98 0.66 3 1 C2.01 1 1.02 1 0 1 C0 0.67 0 0.34 0 0 Z " fill="#142230"
        transform="translate(129,143)" />
    <path d="M0 0 C0.66 0.66 1.32 1.32 2 2 C1.01 1.67 0.02 1.34 -1 1 C-0.67 0.67 -0.34 0.34 0 0 Z " fill="#142230"
        transform="translate(142,51)" />
    <path d="M0 0 C0.66 0.66 1.32 1.32 2 2 C1.01 1.67 0.02 1.34 -1 1 C-0.67 0.67 -0.34 0.34 0 0 Z " fill="#142230"
        transform="translate(305,49)" />
    <path d="M0 0 C3 1 3 1 3 1 Z " fill="#142230" transform="translate(191,349)" />
    <path d="M0 0 C3 1 3 1 3 1 Z " fill="#142230" transform="translate(188,348)" />
    <path d="M0 0 C0.33 0.66 0.66 1.32 1 2 C0.34 1.67 -0.32 1.34 -1 1 C-0.67 0.67 -0.34 0.34 0 0 Z " fill="#142230"
        transform="translate(241,326)" />
    <path d="M0 0 C0.66 0.66 1.32 1.32 2 2 C1.34 2 0.68 2 0 2 C0 1.34 0 0.68 0 0 Z " fill="#142230"
        transform="translate(127,302)" />
    <path d="" fill="#142230" transform="translate(0,0)" />
    <path d="M0 0 C0.99 0.495 0.99 0.495 2 1 C1.01 1.495 1.01 1.495 0 2 C0 1.34 0 0.68 0 0 Z " fill="#142230"
        transform="translate(194,272)" />
    <path d="M0 0 C0.66 0.66 1.32 1.32 2 2 C1.34 2 0.68 2 0 2 C0 1.34 0 0.68 0 0 Z " fill="#142230"
        transform="translate(189,267)" />
    <path d="" fill="#142230" transform="translate(0,0)" />
    <path d="M0 0 C0.33 0.66 0.66 1.32 1 2 C0.34 1.67 -0.32 1.34 -1 1 C-0.67 0.67 -0.34 0.34 0 0 Z " fill="#142230"
        transform="translate(211,266)" />
    <path d="" fill="#142230" transform="translate(0,0)" />
    <path d="M0 0 C0.33 0.66 0.66 1.32 1 2 C0.34 1.67 -0.32 1.34 -1 1 C-0.67 0.67 -0.34 0.34 0 0 Z " fill="#142230"
        transform="translate(163,254)" />
    <path d="M0 0 C3 1 3 1 3 1 Z " fill="#142230" transform="translate(127,250)" />
    <path d="M0 0 C3 1 3 1 3 1 Z " fill="#142230" transform="translate(272,249)" />
    <path d="M0 0 C3 1 3 1 3 1 Z " fill="#142230" transform="translate(124,249)" />
    <path d="M0 0 C3 1 3 1 3 1 Z " fill="#142230" transform="translate(120,248)" />
    <path d="M0 0 C3 1 3 1 3 1 Z " fill="#142230" transform="translate(309,241)" />
    <path d="M0 0 C3 1 3 1 3 1 Z " fill="#142230" transform="translate(312,240)" />
    <path d="M0 0 C3 1 3 1 3 1 Z " fill="#142230" transform="translate(85,240)" />
    <path d="M0 0 C3 1 3 1 3 1 Z " fill="#142230" transform="translate(316,239)" />
    <path d="M0 0 C3 1 3 1 3 1 Z " fill="#142230" transform="translate(81,239)" />
    <path d="M0 0 C0.33 0.66 0.66 1.32 1 2 C0.34 1.67 -0.32 1.34 -1 1 C-0.67 0.67 -0.34 0.34 0 0 Z " fill="#142230"
        transform="translate(329,230)" />
    <path d="M0 0 C0.66 0 1.32 0 2 0 C1.67 0.66 1.34 1.32 1 2 C0.67 1.34 0.34 0.68 0 0 Z " fill="#142230"
        transform="translate(344,212)" />
    <path d="M0 0 C0.99 0.495 0.99 0.495 2 1 C1.01 1.495 1.01 1.495 0 2 C0 1.34 0 0.68 0 0 Z " fill="#142230"
        transform="translate(54,212)" />
    <path d="M0 0 C3 1 3 1 3 1 Z " fill="#142230" transform="translate(243,207)" />
    <path d="M0 0 C3 1 3 1 3 1 Z " fill="#142230" transform="translate(279,203)" />
    <path d="M0 0 C3 1 3 1 3 1 Z " fill="#142230" transform="translate(115,202)" />
    <path d="M0 0 C3 1 3 1 3 1 Z " fill="#142230" transform="translate(112,201)" />
    <path d="M0 0 C3 1 3 1 3 1 Z " fill="#142230" transform="translate(290,199)" />
    <path d="M0 0 C0.66 0.66 1.32 1.32 2 2 C1.34 2 0.68 2 0 2 C0 1.34 0 0.68 0 0 Z " fill="#142230"
        transform="translate(326,194)" />
    <path d="M0 0 C0.33 0.66 0.66 1.32 1 2 C0.34 1.67 -0.32 1.34 -1 1 C-0.67 0.67 -0.34 0.34 0 0 Z " fill="#142230"
        transform="translate(102,195)" />
    <path d="M0 0 C0.66 0 1.32 0 2 0 C1.67 0.66 1.34 1.32 1 2 C0.67 1.34 0.34 0.68 0 0 Z " fill="#142230"
        transform="translate(103,193)" />
    <path d="M0 0 C0.33 0.66 0.66 1.32 1 2 C0.34 1.67 -0.32 1.34 -1 1 C-0.67 0.67 -0.34 0.34 0 0 Z " fill="#142230"
        transform="translate(78,190)" />
    <path d="M0 0 C0.33 0.66 0.66 1.32 1 2 C0.34 1.67 -0.32 1.34 -1 1 C-0.67 0.67 -0.34 0.34 0 0 Z " fill="#142230"
        transform="translate(80,188)" />
    <path d="" fill="#142230" transform="translate(0,0)" />
    <path d="M0 0 C0.99 0.495 0.99 0.495 2 1 C1.01 1.495 1.01 1.495 0 2 C0 1.34 0 0.68 0 0 Z " fill="#142230"
        transform="translate(382,162)" />
    <path d="" fill="#142230" transform="translate(0,0)" />
    <path d="M0 0 C3 1 3 1 3 1 Z " fill="#142230" transform="translate(116,136)" />
    <path d="M0 0 C3 1 3 1 3 1 Z " fill="#142230" transform="translate(106,132)" />
    <path d="M0 0 C3 1 3 1 3 1 Z " fill="#142230" transform="translate(103,131)" />
    <path d="M0 0 C3 1 3 1 3 1 Z " fill="#142230" transform="translate(100,130)" />
    <path d="M0 0 C3 1 3 1 3 1 Z " fill="#142230" transform="translate(324,128)" />
    <path d="M0 0 C0.99 0.495 0.99 0.495 2 1 C1.01 1.495 1.01 1.495 0 2 C0 1.34 0 0.68 0 0 Z " fill="#142230"
        transform="translate(274,112)" />
    <path d="M0 0 C2 1 2 1 2 1 Z " fill="#142230" transform="translate(211,348)" />
    <path d="M0 0 C2 1 2 1 2 1 Z " fill="#142230" transform="translate(207,348)" />
    <path d="M0 0 C2 1 2 1 2 1 Z " fill="#142230" transform="translate(179,345)" />
    <path d="M0 0 C2 1 2 1 2 1 Z " fill="#142230" transform="translate(181,344)" />
    <path d="M0 0 C2 1 2 1 2 1 Z " fill="#142230" transform="translate(220,341)" />
    <path d="M0 0 C2 1 2 1 2 1 Z " fill="#142230" transform="translate(224,338)" />
    <path d="M0 0 C2 1 2 1 2 1 Z " fill="#142230" transform="translate(227,336)" />
    <path d="M0 0 C2 1 2 1 2 1 Z " fill="#142230" transform="translate(169,334)" />
    <path d="M0 0 C2 1 2 1 2 1 Z " fill="#142230" transform="translate(234,331)" />
    <path d="M0 0 C2 1 2 1 2 1 Z " fill="#142230" transform="translate(165,331)" />
    <path d="M0 0 C2 1 2 1 2 1 Z " fill="#142230" transform="translate(162,329)" />
    <path d="M0 0 C2 1 2 1 2 1 Z " fill="#142230" transform="translate(238,328)" />
    <path d="M0 0 C2 1 2 1 2 1 Z " fill="#142230" transform="translate(154,323)" />
    <path d="" fill="#142230" transform="translate(0,0)" />
    <path d="M0 0 C2 1 2 1 2 1 Z " fill="#142230" transform="translate(264,308)" />
    <path d="M0 0 C2 1 2 1 2 1 Z " fill="#142230" transform="translate(133,308)" />
    <path d="M0 0 C2 1 2 1 2 1 Z " fill="#142230" transform="translate(267,306)" />
    <path d="M0 0 C2 1 2 1 2 1 Z " fill="#142230" transform="translate(121,297)" />
    <path d="M0 0 C2 1 2 1 2 1 Z " fill="#142230" transform="translate(279,295)" />
    <path d="" fill="#142230" transform="translate(0,0)" />
    <path d="M0 0 C2 1 2 1 2 1 Z " fill="#142230" transform="translate(187,273)" />
    <path d="M0 0 C2 1 2 1 2 1 Z " fill="#142230" transform="translate(211,272)" />
    <path d="M0 0 C2 1 2 1 2 1 Z " fill="#142230" transform="translate(216,269)" />
    <path d="M0 0 C2 1 2 1 2 1 Z " fill="#142230" transform="translate(218,268)" />
    <path d="M0 0 C2 1 2 1 2 1 Z " fill="#142230" transform="translate(179,267)" />
    <path d="M0 0 C2 1 2 1 2 1 Z " fill="#142230" transform="translate(223,265)" />
    <path d="M0 0 C2 1 2 1 2 1 Z " fill="#142230" transform="translate(226,263)" />
    <path d="M0 0 C2 1 2 1 2 1 Z " fill="#142230" transform="translate(172,262)" />
    <path d="M0 0 C2 1 2 1 2 1 Z " fill="#142230" transform="translate(168,259)" />
    <path d="M0 0 C2 1 2 1 2 1 Z " fill="#142230" transform="translate(233,258)" />
    <path d="M0 0 C2 1 2 1 2 1 Z " fill="#142230" transform="translate(237,255)" />
    <path d="M0 0 C2 1 2 1 2 1 Z " fill="#142230" transform="translate(137,254)" />
    <path d="M0 0 C2 1 2 1 2 1 Z " fill="#142230" transform="translate(262,253)" />
    <path d="M0 0 C2 1 2 1 2 1 Z " fill="#142230" transform="translate(135,253)" />
    <path d="M0 0 C2 1 2 1 2 1 Z " fill="#142230" transform="translate(264,252)" />
    <path d="M0 0 C2 1 2 1 2 1 Z " fill="#142230" transform="translate(241,252)" />
    <path d="M0 0 C2 1 2 1 2 1 Z " fill="#142230" transform="translate(157,252)" />
    <path d="M0 0 C2 1 2 1 2 1 Z " fill="#142230" transform="translate(155,251)" />
    <path d="M0 0 C2 1 2 1 2 1 Z " fill="#142230" transform="translate(130,251)" />
    <path d="M0 0 C2 1 2 1 2 1 Z " fill="#142230" transform="translate(153,250)" />
    <path d="" fill="#142230" transform="translate(0,0)" />
    <path d="M0 0 C2 1 2 1 2 1 Z " fill="#142230" transform="translate(230,247)" />
    <path d="M0 0 C2 1 2 1 2 1 Z " fill="#142230" transform="translate(232,246)" />
    <path d="M0 0 C2 1 2 1 2 1 Z " fill="#142230" transform="translate(167,246)" />
    <path d="" fill="#142230" transform="translate(0,0)" />
    <path d="M0 0 C2 1 2 1 2 1 Z " fill="#142230" transform="translate(319,238)" />
    <path d="M0 0 C2 1 2 1 2 1 Z " fill="#142230" transform="translate(79,238)" />
    <path d="" fill="#142230" transform="translate(0,0)" />
    <path d="" fill="#142230" transform="translate(0,0)" />
    <path d="M0 0 C2 1 2 1 2 1 Z " fill="#142230" transform="translate(72,207)" />
    <path d="M0 0 C2 1 2 1 2 1 Z " fill="#142230" transform="translate(241,206)" />
    <path d="M0 0 C2 1 2 1 2 1 Z " fill="#142230" transform="translate(239,205)" />
    <path d="M0 0 C2 1 2 1 2 1 Z " fill="#142230" transform="translate(118,203)" />
    <path d="M0 0 C2 1 2 1 2 1 Z " fill="#142230" transform="translate(284,202)" />
    <path d="M0 0 C2 1 2 1 2 1 Z " fill="#142230" transform="translate(286,201)" />
    <path d="M0 0 C2 1 2 1 2 1 Z " fill="#142230" transform="translate(288,200)" />
    <path d="M0 0 C2 1 2 1 2 1 Z " fill="#142230" transform="translate(110,200)" />
    <path d="M0 0 C2 1 2 1 2 1 Z " fill="#142230" transform="translate(293,198)" />
    <path d="M0 0 C2 1 2 1 2 1 Z " fill="#142230" transform="translate(295,197)" />
    <path d="M0 0 C2 1 2 1 2 1 Z " fill="#142230" transform="translate(103,197)" />
    <path d="M0 0 C2 1 2 1 2 1 Z " fill="#142230" transform="translate(297,196)" />
    <path d="M0 0 C2 1 2 1 2 1 Z " fill="#142230" transform="translate(99,195)" />
    <path d="M0 0 C2 1 2 1 2 1 Z " fill="#142230" transform="translate(300,194)" />
    <path d="M0 0 C2 1 2 1 2 1 Z " fill="#142230" transform="translate(97,194)" />
    <path d="M0 0 C2 1 2 1 2 1 Z " fill="#142230" transform="translate(302,193)" />
    <path d="M0 0 C2 1 2 1 2 1 Z " fill="#142230" transform="translate(304,192)" />
    <path d="" fill="#142230" transform="translate(0,0)" />
    <path d="" fill="#142230" transform="translate(0,0)" />
    <path d="" fill="#0F0F0F" transform="translate(0,0)" />
    <path d="" fill="#142230" transform="translate(0,0)" />
    <path d="" fill="#0A0A0A" transform="translate(0,0)" />
    <path d="M0 0 C2 1 2 1 2 1 Z " fill="#142230" transform="translate(136,157)" />
    <path d="M0 0 C2 1 2 1 2 1 Z " fill="#142230" transform="translate(141,156)" />
    <path d="" fill="#142230" transform="translate(0,0)" />
    <path d="M0 0 C2 1 2 1 2 1 Z " fill="#142230" transform="translate(135,147)" />
    <path d="M0 0 C2 1 2 1 2 1 Z " fill="#142230" transform="translate(132,145)" />
    <path d="M0 0 C2 1 2 1 2 1 Z " fill="#142230" transform="translate(269,141)" />
    <path d="M0 0 C2 1 2 1 2 1 Z " fill="#142230" transform="translate(126,141)" />
    <path d="M0 0 C2 1 2 1 2 1 Z " fill="#142230" transform="translate(124,140)" />
    <path d="" fill="#142230" transform="translate(0,0)" />
    <path d="M0 0 C2 1 2 1 2 1 Z " fill="#142230" transform="translate(272,139)" />
    <path d="M0 0 C2 1 2 1 2 1 Z " fill="#142230" transform="translate(274,138)" />
    <path d="M0 0 C2 1 2 1 2 1 Z " fill="#142230" transform="translate(276,137)" />
    <path d="M0 0 C2 1 2 1 2 1 Z " fill="#142230" transform="translate(278,136)" />
    <path d="M0 0 C2 1 2 1 2 1 Z " fill="#142230" transform="translate(280,135)" />
    <path d="M0 0 C2 1 2 1 2 1 Z " fill="#142230" transform="translate(112,134)" />
    <path d="M0 0 C2 1 2 1 2 1 Z " fill="#142230" transform="translate(110,133)" />
    <path d="M0 0 C2 1 2 1 2 1 Z " fill="#142230" transform="translate(327,129)" />
    <path d="M0 0 C2 1 2 1 2 1 Z " fill="#142230" transform="translate(321,127)" />
    <path d="" fill="#142230" transform="translate(0,0)" />
    <path d="" fill="#142230" transform="translate(0,0)" />
    <path d="" fill="#142230" transform="translate(0,0)" />
    <path d="" fill="#142230" transform="translate(0,0)" />
    <path d="" fill="#142230" transform="translate(0,0)" />
    <path d="" fill="#142230" transform="translate(0,0)" />
    <path d="" fill="#142230" transform="translate(0,0)" />
    <path d="" fill="#142230" transform="translate(0,0)" />
    <path d="" fill="#142230" transform="translate(0,0)" />
    <path d="M0 0 C2 1 2 1 2 1 Z " fill="#142230" transform="translate(350,107)" />
    <path d="" fill="#142230" transform="translate(0,0)" />
    <path d="" fill="#142230" transform="translate(0,0)" />
    <path d="" fill="#142230" transform="translate(0,0)" />
    <path d="" fill="#142230" transform="translate(0,0)" />
    <path d="" fill="#142230" transform="translate(0,0)" />
    <path d="" fill="#142230" transform="translate(0,0)" />
    <path d="" fill="#142230" transform="translate(0,0)" />
    <path d="" fill="#142230" transform="translate(0,0)" />
    <path d="" fill="#142230" transform="translate(0,0)" />
    <path d="" fill="#142230" transform="translate(0,0)" />
    <path d="" fill="#142230" transform="translate(0,0)" />
    <path d="" fill="#142230" transform="translate(0,0)" />
    <path d="M0 0 C2 1 2 1 2 1 Z " fill="#142230" transform="translate(329,73)" />
    <path d="M0 0 C2 1 2 1 2 1 Z " fill="#142230" transform="translate(256,72)" />
    <path d="" fill="#142230" transform="translate(0,0)" />
    <path d="" fill="#142230" transform="translate(0,0)" />
    <path d="M0 0 C2 1 2 1 2 1 Z " fill="#142230" transform="translate(256,65)" />
    <path d="" fill="#142230" transform="translate(0,0)" />
    <path d="" fill="#142230" transform="translate(0,0)" />
    <path d="" fill="#142230" transform="translate(0,0)" />
    <path d="" fill="#142230" transform="translate(0,0)" />
    <path d="" fill="#142230" transform="translate(0,0)" />
    <path d="" fill="#142230" transform="translate(0,0)" />
    <path d="" fill="#142230" transform="translate(0,0)" />
    <path d="" fill="#142230" transform="translate(0,0)" />
    <path d="" fill="#142230" transform="translate(0,0)" />
    <path d="" fill="#142230" transform="translate(0,0)" />
    <path d="" fill="#142230" transform="translate(0,0)" />
    <path d="" fill="#142230" transform="translate(0,0)" />
    <path d="" fill="#142230" transform="translate(0,0)" />
    <path d="" fill="#142230" transform="translate(0,0)" />
    <path d="" fill="#142230" transform="translate(0,0)" />
    <path d="" fill="#142230" transform="translate(0,0)" />
    <path d="" fill="#142230" transform="translate(0,0)" />
    <path d="" fill="#142230" transform="translate(0,0)" />
    <path d="" fill="#142230" transform="translate(0,0)" />
    <path d="" fill="#142230" transform="translate(0,0)" />
    <path d="" fill="#142230" transform="translate(0,0)" />
    <path d="" fill="#142230" transform="translate(0,0)" />
    <path d="" fill="#142230" transform="translate(0,0)" />
    <path d="" fill="#142230" transform="translate(0,0)" />
    <path d="" fill="#142230" transform="translate(0,0)" />
    <path d="" fill="#142230" transform="translate(0,0)" />
    <path d="" fill="#142230" transform="translate(0,0)" />
    <path d="" fill="#142230" transform="translate(0,0)" />
    <path d="" fill="#142230" transform="translate(0,0)" />
    <path d="" fill="#142230" transform="translate(0,0)" />
    <path d="" fill="#142230" transform="translate(0,0)" />
    <path d="" fill="#0C0C0C" transform="translate(0,0)" />
    <path d="" fill="#142230" transform="translate(0,0)" />
    <path d="" fill="#142230" transform="translate(0,0)" />
    <path d="" fill="#142230" transform="translate(0,0)" />
    <path d="" fill="#142230" transform="translate(0,0)" />
    <path d="" fill="#142230" transform="translate(0,0)" />
    <path d="" fill="#142230" transform="translate(0,0)" />
    <path d="" fill="#142230" transform="translate(0,0)" />
    <path d="" fill="#142230" transform="translate(0,0)" />
    <path d="" fill="#142230" transform="translate(0,0)" />
    <path d="" fill="#142230" transform="translate(0,0)" />
    <path d="" fill="#142230" transform="translate(0,0)" />
    <path d="" fill="#142230" transform="translate(0,0)" />
    <path d="" fill="#142230" transform="translate(0,0)" />
    <path d="" fill="#142230" transform="translate(0,0)" />
    <path d="" fill="#142230" transform="translate(0,0)" />
    <path d="" fill="#142230" transform="translate(0,0)" />
    <path d="" fill="#142230" transform="translate(0,0)" />
    <path d="" fill="#142230" transform="translate(0,0)" />
    <path d="" fill="#142230" transform="translate(0,0)" />
    <path d="" fill="#142230" transform="translate(0,0)" />
    <path d="" fill="#142230" transform="translate(0,0)" />
    <path d="" fill="#142230" transform="translate(0,0)" />
    <path d="" fill="#142230" transform="translate(0,0)" />
    <path d="" fill="#142230" transform="translate(0,0)" />
    <path d="" fill="#142230" transform="translate(0,0)" />
    <path d="" fill="#142230" transform="translate(0,0)" />
    <path d="" fill="#142230" transform="translate(0,0)" />
    <path d="" fill="#142230" transform="translate(0,0)" />
    <path d="" fill="#142230" transform="translate(0,0)" />
    <path d="" fill="#142230" transform="translate(0,0)" />
    <path d="" fill="#142230" transform="translate(0,0)" />
    <path d="" fill="#142230" transform="translate(0,0)" />
    <path d="" fill="#142230" transform="translate(0,0)" />
    <path d="" fill="#142230" transform="translate(0,0)" />
    <path d="" fill="#142230" transform="translate(0,0)" />
    <path d="" fill="#142230" transform="translate(0,0)" />
    <path d="" fill="#142230" transform="translate(0,0)" />
    <path d="" fill="#142230" transform="translate(0,0)" />
    <path d="" fill="#142230" transform="translate(0,0)" />
    <path d="" fill="#142230" transform="translate(0,0)" />
    <path d="" fill="#142230" transform="translate(0,0)" />
    <path d="" fill="#142230" transform="translate(0,0)" />
    <path d="" fill="#142230" transform="translate(0,0)" />
    <path d="" fill="#142230" transform="translate(0,0)" />
    <path d="" fill="#142230" transform="translate(0,0)" />
    <path d="" fill="#142230" transform="translate(0,0)" />
    <path d="" fill="#142230" transform="translate(0,0)" />
    <path d="" fill="#142230" transform="translate(0,0)" />
    <path d="" fill="#142230" transform="translate(0,0)" />
    <path d="" fill="#142230" transform="translate(0,0)" />
    <path d="" fill="#142230" transform="translate(0,0)" />
    <path d="" fill="#142230" transform="translate(0,0)" />
    <path d="" fill="#142230" transform="translate(0,0)" />
    <path d="" fill="#142230" transform="translate(0,0)" />
    <path d="" fill="#142230" transform="translate(0,0)" />
    <path d="" fill="#142230" transform="translate(0,0)" />
    <path d="" fill="#142230" transform="translate(0,0)" />
    <path d="" fill="#142230" transform="translate(0,0)" />
    <path d="" fill="#142230" transform="translate(0,0)" />
    <path d="" fill="#142230" transform="translate(0,0)" />
    <path d="" fill="#142230" transform="translate(0,0)" />
    <path d="" fill="#142230" transform="translate(0,0)" />
    <path d="" fill="#142230" transform="translate(0,0)" />
    <path d="" fill="#142230" transform="translate(0,0)" />
    <path d="" fill="#142230" transform="translate(0,0)" />
    <path d="" fill="#142230" transform="translate(0,0)" />
    <path d="" fill="#142230" transform="translate(0,0)" />
    <path d="" fill="#142230" transform="translate(0,0)" />
    <path d="" fill="#142230" transform="translate(0,0)" />
    <path d="" fill="#142230" transform="translate(0,0)" />
    <path d="" fill="#142230" transform="translate(0,0)" />
    <path d="" fill="#142230" transform="translate(0,0)" />
    <path d="" fill="#142230" transform="translate(0,0)" />
    <path d="" fill="#142230" transform="translate(0,0)" />
    <path d="" fill="#142230" transform="translate(0,0)" />
    <path d="" fill="#142230" transform="translate(0,0)" />
    <path d="" fill="#142230" transform="translate(0,0)" />
    <path d="" fill="#142230" transform="translate(0,0)" />
    <path d="" fill="#142230" transform="translate(0,0)" />
    <path d="" fill="#142230" transform="translate(0,0)" />
    <path d="" fill="#142230" transform="translate(0,0)" />
    <path d="" fill="#142230" transform="translate(0,0)" />
    <path d="" fill="#142230" transform="translate(0,0)" />
    <path d="" fill="#142230" transform="translate(0,0)" />
    <path d="" fill="#142230" transform="translate(0,0)" />
    <path d="" fill="#142230" transform="translate(0,0)" />
    <path d="" fill="#142230" transform="translate(0,0)" />
    <path d="" fill="#142230" transform="translate(0,0)" />
    <path d="" fill="#142230" transform="translate(0,0)" />
    <path d="" fill="#142230" transform="translate(0,0)" />
    <path d="" fill="#142230" transform="translate(0,0)" />
    <path d="" fill="#142230" transform="translate(0,0)" />
    <path d="" fill="#142230" transform="translate(0,0)" />
    <path d="" fill="#142230" transform="translate(0,0)" />
    <path d="" fill="#142230" transform="translate(0,0)" />
    <path d="" fill="#142230" transform="translate(0,0)" />
    <path d="" fill="#142230" transform="translate(0,0)" />
    <path d="" fill="#142230" transform="translate(0,0)" />
    <path d="" fill="#142230" transform="translate(0,0)" />
    <path d="" fill="#142230" transform="translate(0,0)" />
    <path d="" fill="#0A0A0A" transform="translate(0,0)" />
    <path d="" fill="#142230" transform="translate(0,0)" />
    <path d="" fill="#142230" transform="translate(0,0)" />
    <path d="" fill="#142230" transform="translate(0,0)" />
    <path d="" fill="#142230" transform="translate(0,0)" />
    <path d="" fill="#142230" transform="translate(0,0)" />
    <path d="" fill="#142230" transform="translate(0,0)" />
    <path d="" fill="#142230" transform="translate(0,0)" />
    <path d="" fill="#142230" transform="translate(0,0)" />
    <path d="" fill="#142230" transform="translate(0,0)" />
    <path d="" fill="#142230" transform="translate(0,0)" />
    <path d="" fill="#142230" transform="translate(0,0)" />
    <path d="" fill="#142230" transform="translate(0,0)" />
    <path d="" fill="#142230" transform="translate(0,0)" />
    <path d="" fill="#142230" transform="translate(0,0)" />
    <path d="" fill="#142230" transform="translate(0,0)" />
    <path d="" fill="#142230" transform="translate(0,0)" />
    <path d="" fill="#142230" transform="translate(0,0)" />
    <path d="" fill="#142230" transform="translate(0,0)" />
    <path d="" fill="#142230" transform="translate(0,0)" />
    <path d="" fill="#142230" transform="translate(0,0)" />
    <path d="" fill="#142230" transform="translate(0,0)" />
    <path d="" fill="#142230" transform="translate(0,0)" />
    <path d="" fill="#142230" transform="translate(0,0)" />
    <path d="" fill="#142230" transform="translate(0,0)" />
    <path d="" fill="#142230" transform="translate(0,0)" />
    <path d="" fill="#142230" transform="translate(0,0)" />
    <path d="" fill="#142230" transform="translate(0,0)" />
    <path d="" fill="#142230" transform="translate(0,0)" />
    <path d="" fill="#142230" transform="translate(0,0)" />
    <path d="" fill="#142230" transform="translate(0,0)" />
    <path d="" fill="#142230" transform="translate(0,0)" />
    <path d="" fill="#142230" transform="translate(0,0)" />
    <path d="" fill="#142230" transform="translate(0,0)" />
    <path d="" fill="#142230" transform="translate(0,0)" />
    <path d="" fill="#142230" transform="translate(0,0)" />
    <path d="" fill="#142230" transform="translate(0,0)" />
    <path d="" fill="#142230" transform="translate(0,0)" />
    <path d="" fill="#142230" transform="translate(0,0)" />
    <path d="" fill="#142230" transform="translate(0,0)" />
    <path d="" fill="#142230" transform="translate(0,0)" />
    <path d="" fill="#142230" transform="translate(0,0)" />
    <path d="" fill="#142230" transform="translate(0,0)" />
    <path d="" fill="#142230" transform="translate(0,0)" />
    <path d="" fill="#142230" transform="translate(0,0)" />
    <path d="" fill="#142230" transform="translate(0,0)" />
    <path d="" fill="#142230" transform="translate(0,0)" />
    <path d="" fill="#142230" transform="translate(0,0)" />
    <path d="" fill="#142230" transform="translate(0,0)" />
    <path d="" fill="#142230" transform="translate(0,0)" />
    <path d="" fill="#142230" transform="translate(0,0)" />
    <path d="" fill="#142230" transform="translate(0,0)" />
    <path d="" fill="#142230" transform="translate(0,0)" />
    <path d="" fill="#142230" transform="translate(0,0)" />
    <path d="" fill="#142230" transform="translate(0,0)" />
    <path d="" fill="#142230" transform="translate(0,0)" />
    <path d="" fill="#142230" transform="translate(0,0)" />
    <path d="" fill="#142230" transform="translate(0,0)" />
    <path d="" fill="#142230" transform="translate(0,0)" />
    <path d="" fill="#142230" transform="translate(0,0)" />
    <path d="" fill="#142230" transform="translate(0,0)" />
    <path d="" fill="#142230" transform="translate(0,0)" />
    <path d="" fill="#142230" transform="translate(0,0)" />
    <path d="" fill="#142230" transform="translate(0,0)" />
    <path d="" fill="#142230" transform="translate(0,0)" />
    <path d="" fill="#142230" transform="translate(0,0)" />
    <path d="" fill="#142230" transform="translate(0,0)" />
    <path d="" fill="#142230" transform="translate(0,0)" />
    <path d="" fill="#142230" transform="translate(0,0)" />
    <path d="" fill="#142230" transform="translate(0,0)" />
    <path d="" fill="#142230" transform="translate(0,0)" />
    <path d="" fill="#142230" transform="translate(0,0)" />
    <path d="" fill="#142230" transform="translate(0,0)" />
    <path d="" fill="#142230" transform="translate(0,0)" />
    <path d="" fill="#142230" transform="translate(0,0)" />
    <path d="" fill="#142230" transform="translate(0,0)" />
    <path d="" fill="#142230" transform="translate(0,0)" />
    <path d="" fill="#142230" transform="translate(0,0)" />
    <path d="" fill="#142230" transform="translate(0,0)" />
    <path d="" fill="#142230" transform="translate(0,0)" />
    <path d="" fill="#142230" transform="translate(0,0)" />
    <path d="" fill="#142230" transform="translate(0,0)" />
    <path d="" fill="#142230" transform="translate(0,0)" />
    <path d="" fill="#142230" transform="translate(0,0)" />
    <path d="" fill="#142230" transform="translate(0,0)" />
    <path d="" fill="#142230" transform="translate(0,0)" />
    <path d="" fill="#142230" transform="translate(0,0)" />
    <path d="" fill="#142230" transform="translate(0,0)" />
    <path d="" fill="#142230" transform="translate(0,0)" />
    <path d="" fill="#142230" transform="translate(0,0)" />
    <path d="" fill="#142230" transform="translate(0,0)" />
    <path d="" fill="#142230" transform="translate(0,0)" />
    <path d="" fill="#142230" transform="translate(0,0)" />
    <path d="" fill="#142230" transform="translate(0,0)" />
    <path d="" fill="#142230" transform="translate(0,0)" />
    <path d="" fill="#142230" transform="translate(0,0)" />
    <path d="" fill="#142230" transform="translate(0,0)" />
    <path d="" fill="#142230" transform="translate(0,0)" />
    <path d="" fill="#142230" transform="translate(0,0)" />
    <path d="" fill="#142230" transform="translate(0,0)" />
    <path d="" fill="#142230" transform="translate(0,0)" />
    <path d="" fill="#142230" transform="translate(0,0)" />
    <path d="" fill="#142230" transform="translate(0,0)" />
    <path d="" fill="#142230" transform="translate(0,0)" />
    <path d="" fill="#142230" transform="translate(0,0)" />
    <path d="" fill="#142230" transform="translate(0,0)" />
    <path d="" fill="#142230" transform="translate(0,0)" />
    <path d="" fill="#142230" transform="translate(0,0)" />
    <path d="" fill="#142230" transform="translate(0,0)" />
    <path d="" fill="#142230" transform="translate(0,0)" />
    <path d="" fill="#142230" transform="translate(0,0)" />
    <path d="" fill="#142230" transform="translate(0,0)" />
    <path d="" fill="#142230" transform="translate(0,0)" />
    <path d="" fill="#142230" transform="translate(0,0)" />
    <path d="" fill="#142230" transform="translate(0,0)" />
    <path d="" fill="#142230" transform="translate(0,0)" />
    <path d="" fill="#142230" transform="translate(0,0)" />
    <path d="" fill="#142230" transform="translate(0,0)" />
    <path d="" fill="#142230" transform="translate(0,0)" />
    <path d="" fill="#142230" transform="translate(0,0)" />
    <path d="" fill="#142230" transform="translate(0,0)" />
    <path d="" fill="#142230" transform="translate(0,0)" />
    <path d="" fill="#142230" transform="translate(0,0)" />
    <path d="" fill="#142230" transform="translate(0,0)" />
    <path d="" fill="#142230" transform="translate(0,0)" />
    <path d="" fill="#142230" transform="translate(0,0)" />
    <path d="" fill="#142230" transform="translate(0,0)" />
    <path d="" fill="#142230" transform="translate(0,0)" />
    <path d="" fill="#142230" transform="translate(0,0)" />
    <path d="" fill="#142230" transform="translate(0,0)" />
    <path d="" fill="#142230" transform="translate(0,0)" />
    <path d="" fill="#142230" transform="translate(0,0)" />
    <path d="" fill="#142230" transform="translate(0,0)" />
    <path d="" fill="#142230" transform="translate(0,0)" />
    <path d="" fill="#142230" transform="translate(0,0)" />
    <path d="" fill="#142230" transform="translate(0,0)" />
    <path d="" fill="#142230" transform="translate(0,0)" />
    <path d="" fill="#142230" transform="translate(0,0)" />
    <path d="" fill="#142230" transform="translate(0,0)" />
    <path d="" fill="#142230" transform="translate(0,0)" />
    <path d="" fill="#142230" transform="translate(0,0)" />
    <path d="" fill="#142230" transform="translate(0,0)" />
    <path d="" fill="#142230" transform="translate(0,0)" />
    <path d="" fill="#142230" transform="translate(0,0)" />
    <path d="" fill="#142230" transform="translate(0,0)" />
    <path d="" fill="#142230" transform="translate(0,0)" />
    <path d="" fill="#142230" transform="translate(0,0)" />
    <path d="" fill="#142230" transform="translate(0,0)" />
    <path d="" fill="#142230" transform="translate(0,0)" />
    <path d="" fill="#142230" transform="translate(0,0)" />
    <path d="" fill="#142230" transform="translate(0,0)" />
    <path d="" fill="#142230" transform="translate(0,0)" />
    <path d="" fill="#142230" transform="translate(0,0)" />
    <path d="" fill="#142230" transform="translate(0,0)" />
    <path d="" fill="#142230" transform="translate(0,0)" />
    <path d="" fill="#142230" transform="translate(0,0)" />
    <path d="" fill="#142230" transform="translate(0,0)" />
    <path d="" fill="#142230" transform="translate(0,0)" />
    <path d="" fill="#142230" transform="translate(0,0)" />
    <path d="" fill="#142230" transform="translate(0,0)" />
    <path d="" fill="#142230" transform="translate(0,0)" />
    <path d="" fill="#142230" transform="translate(0,0)" />
    <path d="" fill="#142230" transform="translate(0,0)" />
    <path d="" fill="#142230" transform="translate(0,0)" />
    <path d="" fill="#142230" transform="translate(0,0)" />
    <path d="" fill="#142230" transform="translate(0,0)" />
    <path d="" fill="#142230" transform="translate(0,0)" />
    <path d="" fill="#142230" transform="translate(0,0)" />
    <path d="" fill="#142230" transform="translate(0,0)" />
    <path d="" fill="#142230" transform="translate(0,0)" />
    <path d="" fill="#142230" transform="translate(0,0)" />
    <path d="" fill="#142230" transform="translate(0,0)" />
    <path d="" fill="#142230" transform="translate(0,0)" />
    <path d="" fill="#142230" transform="translate(0,0)" />
    <path d="" fill="#142230" transform="translate(0,0)" />
    <path d="" fill="#142230" transform="translate(0,0)" />
    <path d="" fill="#142230" transform="translate(0,0)" />
    <path d="" fill="#142230" transform="translate(0,0)" />
    <path d="" fill="#142230" transform="translate(0,0)" />
    <path d="" fill="#142230" transform="translate(0,0)" />
    <path d="" fill="#142230" transform="translate(0,0)" />
    <path d="" fill="#142230" transform="translate(0,0)" />
    <path d="" fill="#142230" transform="translate(0,0)" />
    <path d="" fill="#142230" transform="translate(0,0)" />
    <path d="" fill="#142230" transform="translate(0,0)" />
    <path d="" fill="#142230" transform="translate(0,0)" />
    <path d="" fill="#142230" transform="translate(0,0)" />
    <path d="" fill="#142230" transform="translate(0,0)" />
    <path d="" fill="#142230" transform="translate(0,0)" />
    <path d="" fill="#142230" transform="translate(0,0)" />
    <path d="" fill="#142230" transform="translate(0,0)" />
    <path d="" fill="#142230" transform="translate(0,0)" />
    <path d="" fill="#142230" transform="translate(0,0)" />
    <path d="" fill="#142230" transform="translate(0,0)" />
    <path d="" fill="#142230" transform="translate(0,0)" />
    <path d="" fill="#142230" transform="translate(0,0)" />
    <path d="" fill="#142230" transform="translate(0,0)" />
    <path d="" fill="#142230" transform="translate(0,0)" />
    <path d="" fill="#142230" transform="translate(0,0)" />
    <path d="" fill="#142230" transform="translate(0,0)" />
    <path d="" fill="#142230" transform="translate(0,0)" />
    <path d="" fill="#142230" transform="translate(0,0)" />
    <path d="" fill="#142230" transform="translate(0,0)" />
    <path d="" fill="#142230" transform="translate(0,0)" />
    <path d="" fill="#142230" transform="translate(0,0)" />
    <path d="" fill="#142230" transform="translate(0,0)" />
    <path d="" fill="#142230" transform="translate(0,0)" />
    <path d="" fill="#142230" transform="translate(0,0)" />
    <path d="" fill="#142230" transform="translate(0,0)" />
    <path d="" fill="#142230" transform="translate(0,0)" />
    <path d="" fill="#142230" transform="translate(0,0)" />
    <path d="" fill="#142230" transform="translate(0,0)" />
    <path d="" fill="#142230" transform="translate(0,0)" />
    <path d="" fill="#142230" transform="translate(0,0)" />
    <path d="" fill="#142230" transform="translate(0,0)" />
    <path d="" fill="#142230" transform="translate(0,0)" />
    <path d="" fill="#142230" transform="translate(0,0)" />
    <path d="" fill="#142230" transform="translate(0,0)" />
    <path d="" fill="#142230" transform="translate(0,0)" />
    <path d="" fill="#142230" transform="translate(0,0)" />
    <path d="" fill="#142230" transform="translate(0,0)" />
    <path d="" fill="#142230" transform="translate(0,0)" />
    <path d="" fill="#142230" transform="translate(0,0)" />
    <path d="" fill="#142230" transform="translate(0,0)" />
    <path d="" fill="#142230" transform="translate(0,0)" />
    <path d="" fill="#142230" transform="translate(0,0)" />
    <path d="" fill="#142230" transform="translate(0,0)" />
    <path d="" fill="#142230" transform="translate(0,0)" />
    <path d="" fill="#142230" transform="translate(0,0)" />
    <path d="" fill="#142230" transform="translate(0,0)" />
    <path d="" fill="#142230" transform="translate(0,0)" />
    <path d="" fill="#142230" transform="translate(0,0)" />
    <path d="" fill="#142230" transform="translate(0,0)" />
    <path d="" fill="#142230" transform="translate(0,0)" />
    <path d="" fill="#142230" transform="translate(0,0)" />
    <path d="" fill="#142230" transform="translate(0,0)" />
    <path d="" fill="#142230" transform="translate(0,0)" />
    <path d="" fill="#142230" transform="translate(0,0)" />
    <path d="" fill="#142230" transform="translate(0,0)" />
    <path d="" fill="#142230" transform="translate(0,0)" />
    <path d="" fill="#142230" transform="translate(0,0)" />
    <path d="" fill="#142230" transform="translate(0,0)" />
    <path d="" fill="#142230" transform="translate(0,0)" />
    <path d="" fill="#142230" transform="translate(0,0)" />
    <path d="" fill="#142230" transform="translate(0,0)" />
    <path d="" fill="#142230" transform="translate(0,0)" />
    <path d="" fill="#142230" transform="translate(0,0)" />
    <path d="" fill="#142230" transform="translate(0,0)" />
    <path d="" fill="#142230" transform="translate(0,0)" />
    <path d="" fill="#142230" transform="translate(0,0)" />
    <path d="" fill="#142230" transform="translate(0,0)" />
    <path d="" fill="#142230" transform="translate(0,0)" />
    <path d="" fill="#142230" transform="translate(0,0)" />
    <path d="" fill="#142230" transform="translate(0,0)" />
    <path d="" fill="#142230" transform="translate(0,0)" />
    <path d="" fill="#142230" transform="translate(0,0)" />
    <path d="" fill="#142230" transform="translate(0,0)" />
    <path d="" fill="#142230" transform="translate(0,0)" />
    <path d="" fill="#142230" transform="translate(0,0)" />
    <path d="" fill="#142230" transform="translate(0,0)" />
    <path d="" fill="#142230" transform="translate(0,0)" />
    <path d="" fill="#142230" transform="translate(0,0)" />
    <path d="" fill="#142230" transform="translate(0,0)" />
    <path d="" fill="#142230" transform="translate(0,0)" />
    <path d="" fill="#142230" transform="translate(0,0)" />
    <path d="" fill="#142230" transform="translate(0,0)" />
    <path d="" fill="#142230" transform="translate(0,0)" />
    <path d="" fill="#142230" transform="translate(0,0)" />
    <path d="" fill="#142230" transform="translate(0,0)" />
    <path d="" fill="#142230" transform="translate(0,0)" />
    <path d="" fill="#142230" transform="translate(0,0)" />
    <path d="" fill="#142230" transform="translate(0,0)" />
    <path d="" fill="#142230" transform="translate(0,0)" />
    <path d="" fill="#142230" transform="translate(0,0)" />
    <path d="" fill="#142230" transform="translate(0,0)" />
    <path d="" fill="#142230" transform="translate(0,0)" />
    <path d="" fill="#142230" transform="translate(0,0)" />
    <path d="" fill="#142230" transform="translate(0,0)" />
    <path d="" fill="#142230" transform="translate(0,0)" />
    <path d="" fill="#142230" transform="translate(0,0)" />
    <path d="" fill="#142230" transform="translate(0,0)" />
    <path d="" fill="#142230" transform="translate(0,0)" />
    <path d="" fill="#142230" transform="translate(0,0)" />
    <path d="" fill="#142230" transform="translate(0,0)" />
    <path d="" fill="#142230" transform="translate(0,0)" />
    <path d="" fill="#142230" transform="translate(0,0)" />
    <path d="" fill="#142230" transform="translate(0,0)" />
    <path d="" fill="#142230" transform="translate(0,0)" />
    <path d="" fill="#142230" transform="translate(0,0)" />
    <path d="" fill="#142230" transform="translate(0,0)" />
    <path d="" fill="#142230" transform="translate(0,0)" />
    <path d="" fill="#142230" transform="translate(0,0)" />
    <path d="" fill="#142230" transform="translate(0,0)" />
    <path d="" fill="#142230" transform="translate(0,0)" />
    <path d="" fill="#142230" transform="translate(0,0)" />
    <path d="" fill="#142230" transform="translate(0,0)" />
    <path d="" fill="#142230" transform="translate(0,0)" />
    <path d="" fill="#142230" transform="translate(0,0)" />
    <path d="" fill="#142230" transform="translate(0,0)" />
    <path d="" fill="#142230" transform="translate(0,0)" />
    <path d="" fill="#142230" transform="translate(0,0)" />
    <path d="" fill="#142230" transform="translate(0,0)" />
    <path d="" fill="#142230" transform="translate(0,0)" />
    <path d="" fill="#142230" transform="translate(0,0)" />
    <path d="" fill="#142230" transform="translate(0,0)" />
    <path d="" fill="#142230" transform="translate(0,0)" />
    <path d="" fill="#142230" transform="translate(0,0)" />
    <path d="" fill="#142230" transform="translate(0,0)" />
    <path d="" fill="#142230" transform="translate(0,0)" />
    <path d="" fill="#142230" transform="translate(0,0)" />
    <path d="" fill="#142230" transform="translate(0,0)" />
    <path d="" fill="#142230" transform="translate(0,0)" />
    <path d="" fill="#142230" transform="translate(0,0)" />
    <path d="" fill="#142230" transform="translate(0,0)" />
    <path d="" fill="#142230" transform="translate(0,0)" />
    <path d="" fill="#142230" transform="translate(0,0)" />
    <path d="" fill="#142230" transform="translate(0,0)" />
    <path d="" fill="#142230" transform="translate(0,0)" />
    <path d="" fill="#142230" transform="translate(0,0)" />
    <path d="" fill="#142230" transform="translate(0,0)" />
    <path d="" fill="#142230" transform="translate(0,0)" />
    <path d="" fill="#142230" transform="translate(0,0)" />
    <path d="" fill="#142230" transform="translate(0,0)" />
    <path d="" fill="#142230" transform="translate(0,0)" />
    <path d="" fill="#142230" transform="translate(0,0)" />
    <path d="" fill="#142230" transform="translate(0,0)" />
    <path d="" fill="#142230" transform="translate(0,0)" />
    <path d="" fill="#142230" transform="translate(0,0)" />
    <path d="" fill="#142230" transform="translate(0,0)" />
    <path d="" fill="#142230" transform="translate(0,0)" />
    <path d="" fill="#142230" transform="translate(0,0)" />
    <path d="" fill="#142230" transform="translate(0,0)" />
    <path d="" fill="#142230" transform="translate(0,0)" />
    <path d="" fill="#142230" transform="translate(0,0)" />
    <path d="" fill="#142230" transform="translate(0,0)" />
    <path d="" fill="#142230" transform="translate(0,0)" />
    <path d="" fill="#142230" transform="translate(0,0)" />
    <path d="" fill="#142230" transform="translate(0,0)" />
    <path d="" fill="#142230" transform="translate(0,0)" />
    <path d="" fill="#142230" transform="translate(0,0)" />
    <path d="" fill="#142230" transform="translate(0,0)" />
    <path d="" fill="#142230" transform="translate(0,0)" />
    <path d="" fill="#142230" transform="translate(0,0)" />
    <path d="" fill="#142230" transform="translate(0,0)" />
    <path d="" fill="#142230" transform="translate(0,0)" />
    <path d="" fill="#142230" transform="translate(0,0)" />
    <path d="" fill="#142230" transform="translate(0,0)" />
    <path d="" fill="#142230" transform="translate(0,0)" />
    <path d="" fill="#142230" transform="translate(0,0)" />
    <path d="" fill="#142230" transform="translate(0,0)" />
    <path d="" fill="#142230" transform="translate(0,0)" />
    <path d="" fill="#142230" transform="translate(0,0)" />
    <path d="" fill="#142230" transform="translate(0,0)" />
    <path d="" fill="#142230" transform="translate(0,0)" />
    <path d="" fill="#142230" transform="translate(0,0)" />
    <path d="" fill="#142230" transform="translate(0,0)" />
    <path d="" fill="#142230" transform="translate(0,0)" />
    <path d="" fill="#142230" transform="translate(0,0)" />
    <path d="" fill="#0A0A0A" transform="translate(0,0)" />
    <path d="" fill="#142230" transform="translate(0,0)" />
    <path d="" fill="#142230" transform="translate(0,0)" />
    <path d="" fill="#142230" transform="translate(0,0)" />
    <path d="" fill="#142230" transform="translate(0,0)" />
    <path d="" fill="#142230" transform="translate(0,0)" />
    <path d="" fill="#0C0C0C" transform="translate(0,0)" />
    <path d="" fill="#142230" transform="translate(0,0)" />
    <path d="" fill="#142230" transform="translate(0,0)" />
    <path d="" fill="#142230" transform="translate(0,0)" />
    <path d="" fill="#142230" transform="translate(0,0)" />
    <path d="" fill="#142230" transform="translate(0,0)" />
    <path d="" fill="#142230" transform="translate(0,0)" />
    <path d="" fill="#142230" transform="translate(0,0)" />
    <path d="" fill="#142230" transform="translate(0,0)" />
    <path d="" fill="#142230" transform="translate(0,0)" />
    <path d="" fill="#142230" transform="translate(0,0)" />
    <path d="" fill="#142230" transform="translate(0,0)" />
</svg>