<?xml version="1.0" encoding="UTF-8"?>
<svg version="1.1" xmlns="http://www.w3.org/2000/svg" width="360" height="360">
<path d="M0 0 C1.24950439 -0.0038269 2.49900879 -0.00765381 3.78637695 -0.01159668 C7.08382753 -0.01499484 10.38050783 0.0009533 13.67785645 0.0234375 C15.6861996 0.03124494 17.69384366 0.02346 19.70214844 0.00976562 C23.59342296 -0.01507433 27.4836812 -0.01191809 31.375 0 C33.1535437 -0.01214539 33.1535437 -0.01214539 34.96801758 -0.02453613 C46.32984517 0.10244566 55.570147 3.39834651 63.6875 11.53125 C72.43613101 22.89682959 73.15465113 34.90615889 73.12109375 48.703125 C73.12566301 50.35597954 73.13097079 52.00883219 73.13697815 53.66168213 C73.14586605 57.10770442 73.14353269 60.55349437 73.13354492 63.99951172 C73.12201281 68.40671682 73.14235287 72.81312568 73.17146206 77.22022629 C73.18982914 80.62610929 73.18953144 84.03180115 73.18382454 87.43772125 C73.18367164 89.06276829 73.18968986 90.68782853 73.20211601 92.31282806 C73.21704889 94.58373383 73.20633713 96.8531629 73.18920898 99.12402344 C73.18904282 100.41290466 73.18887665 101.70178589 73.18870544 103.02972412 C72.52153871 107.69069023 70.64128966 111.00592299 66.90625 113.921875 C61.6875 116.53125 61.6875 116.53125 59.55351257 117.12176514 C57.28862976 118.5217497 57.28862976 118.5217497 56.83357239 122.11016846 C56.64694434 123.68228734 56.48116513 125.25695962 56.33129883 126.83300781 C56.23478531 127.69172989 56.13827179 128.55045197 56.03883362 129.43519592 C55.72312275 132.28330728 55.43387701 135.13347454 55.14453125 137.984375 C54.93011442 139.9627268 54.71400161 141.94089547 54.4962616 143.91888428 C53.92632729 149.13622704 53.37851993 154.355662 52.83551025 159.5758667 C52.28099937 164.87352872 51.70759054 170.1691358 51.13476562 175.46484375 C50.49075177 181.42030997 49.84840617 187.37587525 49.22285461 193.33331299 C49.12688995 194.24251999 49.03092529 195.15172699 48.93205261 196.08848572 C48.75391235 197.77846408 48.5771535 199.46858892 48.40209961 201.15888977 C47.962938 205.31291206 47.42592868 209.41688734 46.6875 213.53125 C39.01213373 213.55437821 31.33677104 213.57216753 23.66137791 213.58306217 C20.09772578 213.58828995 16.53409743 213.59538569 12.97045898 213.60668945 C8.87743903 213.61959176 4.7844442 213.62447906 0.69140625 213.62890625 C-1.23668129 213.63664818 -1.23668129 213.63664818 -3.20372009 213.64454651 C-4.97544334 213.64465981 -4.97544334 213.64465981 -6.78295898 213.64477539 C-8.35182106 213.64810631 -8.35182106 213.64810631 -9.95237732 213.65150452 C-12.3125 213.53125 -12.3125 213.53125 -13.3125 212.53125 C-13.76731206 209.61760607 -14.16459412 206.71437648 -14.52758789 203.78881836 C-14.64477676 202.8718367 -14.76196564 201.95485504 -14.88270569 201.01008606 C-15.27092483 197.96425701 -15.65304898 194.91769508 -16.03515625 191.87109375 C-16.30239669 189.76497234 -16.57001497 187.65889883 -16.83799744 185.5528717 C-17.54375327 179.99830744 -18.24435225 174.44310431 -18.94390869 168.88775635 C-19.65808271 163.22360713 -20.37709125 157.56007196 -21.09570312 151.89648438 C-22.50605626 140.77533793 -23.91096673 129.65351115 -25.3125 118.53125 C-25.99884521 118.34949219 -26.68519043 118.16773438 -27.39233398 117.98046875 C-28.29282471 117.72910156 -29.19331543 117.47773438 -30.12109375 117.21875 C-31.01368896 116.97511719 -31.90628418 116.73148437 -32.82592773 116.48046875 C-36.70788086 114.99858031 -38.08082485 112.98674701 -40.3125 109.53125 C-41.48872942 106.00256174 -41.4539991 103.18989344 -41.47363281 99.46459961 C-41.47859772 98.74870667 -41.48356262 98.03281372 -41.48867798 97.29522705 C-41.50329058 94.92467282 -41.5101025 92.55418565 -41.515625 90.18359375 C-41.5213802 88.53031921 -41.52713789 86.87704467 -41.53289795 85.22377014 C-41.54340745 81.75277394 -41.54924945 78.28180089 -41.55273438 74.81079102 C-41.55819821 70.38488619 -41.58218085 65.95929225 -41.61070633 61.53348446 C-41.62943232 58.11460004 -41.63454373 54.69578873 -41.63607025 51.27685738 C-41.63907835 49.64673742 -41.64704388 48.01661819 -41.66025543 46.386549 C-41.7584229 33.33546682 -40.52849218 22.2048643 -32.3125 11.53125 C-23.03231357 2.23328543 -12.78938959 -0.08733666 0 0 Z " fill="#201E1F" transform="translate(165.3125,107.46875)"/>
<path d="M0 0 C6.98700321 4.90360589 12.3861361 11.42532915 14 20 C14.87412365 30.67439453 12.89897208 38.68950316 6.01953125 46.98828125 C0.13523034 52.8498189 -7.64368658 55.94201555 -15.88671875 56.03125 C-25.45587725 55.5509911 -32.10813814 52.73870937 -39 46 C-44.8018808 38.382018 -46.94664273 30.52468222 -46 21 C-43.89692607 11.45173732 -38.8331033 4.72307916 -31 -1 C-21.93434393 -6.57282754 -8.73608866 -5.70038218 0 0 Z " fill="#201E1F" transform="translate(197,45)"/>
</svg>
